<?xml version="1.0" encoding="UTF-8"?>
<svg version="1.1" xmlns="http://www.w3.org/2000/svg" width="500" height="500">
<path d="M0 0 C1.0916748 0.25168945 2.18334961 0.50337891 3.30810547 0.76269531 C34.5788057 8.23158721 65.23075154 21.6766809 91 41 C91.58168945 41.42909668 92.16337891 41.85819336 92.76269531 42.30029297 C99.36973304 47.18255 105.66141697 52.32779004 111.7109375 57.89453125 C114.52758241 60.48526778 117.41346283 62.98992403 120.30859375 65.4921875 C123.57059152 68.40011161 123.57059152 68.40011161 125 70 C125 70.66 125 71.32 125 72 C125.99 72.33 126.98 72.66 128 73 C130.58037712 75.42943584 132.74786786 78.2686908 135 81 C135.42990234 81.51369141 135.85980469 82.02738281 136.30273438 82.55664062 C164.96777847 116.89872274 184.38866195 157.83290626 192 202 C192.16226074 202.9173291 192.32452148 203.8346582 192.49169922 204.77978516 C197.04892575 231.77041786 197.54771321 262.12671897 192 289 C191.69400879 290.52439697 191.69400879 290.52439697 191.38183594 292.07958984 C181.47069125 340.47396373 159.11078961 386.6179184 123 421 C122.21625 421.78375 121.4325 422.5675 120.625 423.375 C119.75875 424.24125 118.8925 425.1075 118 426 C117.43539063 426.61101562 116.87078125 427.22203125 116.2890625 427.8515625 C108.97663126 435.55623144 100.519828 441.71346194 92 448 C91.10152344 448.67160156 90.20304687 449.34320313 89.27734375 450.03515625 C47.8626963 480.08386272 -3.32725106 495.48839284 -54.1875 495.375 C-55.63307281 495.37368576 -55.63307281 495.37368576 -57.10784912 495.37234497 C-118.64103672 495.18863915 -179.08965796 472.57935543 -224 430 C-225.26626796 428.93206317 -226.53690032 427.86927295 -227.8125 426.8125 C-272.58765006 387.61139923 -300.28131191 325.64134092 -305 267 C-305.1567401 263.55196801 -305.20902436 260.10751366 -305.23828125 256.65625 C-305.25297203 255.21765625 -305.25297203 255.21765625 -305.26795959 253.75 C-305.43208411 233.52642872 -305.577167 213.81017251 -301 194 C-300.78037598 193.02321289 -300.56075195 192.04642578 -300.33447266 191.04003906 C-298.78258877 184.28994822 -296.99117435 177.63321302 -295 171 C-294.74911621 170.16339844 -294.49823242 169.32679688 -294.23974609 168.46484375 C-284.02579331 135.30726583 -265.75881285 104.99431451 -243 79 C-241.81126917 77.56351766 -240.62351511 76.12622536 -239.4375 74.6875 C-238.633125 73.800625 -237.82875 72.91375 -237 72 C-236.34 72 -235.68 72 -235 72 C-234.73461426 71.40703125 -234.46922852 70.8140625 -234.19580078 70.203125 C-232.16248454 66.45697438 -228.97485822 63.87625112 -225.875 61 C-225.16069824 60.33572998 -224.44639648 59.67145996 -223.71044922 58.98706055 C-216.53308638 52.41660128 -208.94885144 46.59762311 -201 41 C-200.32308105 40.51466797 -199.64616211 40.02933594 -198.94873047 39.52929688 C-142.28743474 -0.89930332 -67.87772863 -15.80211763 0 0 Z M-139 26 C-139.67192383 26.24266602 -140.34384766 26.48533203 -141.03613281 26.73535156 C-168.17816752 36.62532004 -192.55546584 53.53503469 -213.7109375 72.95703125 C-215.29294705 74.36896127 -216.92380524 75.72733987 -218.58984375 77.0390625 C-220.7259275 78.7770107 -222.4232538 80.46263884 -224.1875 82.5625 C-226.1512211 84.87251171 -228.12644722 87.13313755 -230.21484375 89.33203125 C-268.64982279 129.8849832 -289.60198088 187.47075607 -289.3125 243 C-289.31034485 243.75424255 -289.3081897 244.50848511 -289.30596924 245.2855835 C-289.04428343 302.86402545 -268.27610224 358.67416275 -229.44140625 401.40722656 C-228.10028977 402.88917845 -226.78346176 404.39301138 -225.46875 405.8984375 C-220.95211482 411.04925775 -216.25001834 415.61138363 -211 420 C-210.07832031 420.80953125 -209.15664062 421.6190625 -208.20703125 422.453125 C-172.18973592 453.94534664 -128.25597044 472.04978919 -81 478 C-80.2380835 478.09716309 -79.47616699 478.19432617 -78.69116211 478.29443359 C-18.67975038 485.15604836 41.97643793 466.1707553 89.25 429.359375 C90.7497119 428.19442022 92.2640866 427.04838425 93.78125 425.90625 C108.30323932 414.61136942 121.18024026 400.84011567 132 386 C132.7115625 385.06027344 133.423125 384.12054688 134.15625 383.15234375 C141.68519581 373.0896181 147.8900526 362.40395082 153.75 351.3125 C154.20995361 350.4457666 154.66990723 349.5790332 155.14379883 348.68603516 C160.56389415 339.27799408 160.56389415 339.27799408 163 329 C158.05 329 153.1 329 148 329 C148 316.13 148 303.26 148 290 C143.38 290 138.76 290 134 290 C133.67 302.54 133.34 315.08 133 328 C127.72 328.33 122.44 328.66 117 329 C117 297.65 117 266.3 117 234 C122.28 234.33 127.56 234.66 133 235 C133.33 247.54 133.66 260.08 134 273 C138.62 273 143.24 273 148 273 C148 260.13 148 247.26 148 234 C153.61 234 159.22 234 165 234 C165 263.37 165 292.74 165 323 C185.84051498 291.73922752 181.66405436 234.64637199 174.8984375 200.1171875 C173.75757348 194.70184861 172.42032441 189.34805988 171 184 C170.67757324 182.75476563 170.67757324 182.75476563 170.34863281 181.484375 C159.72726896 141.0946147 135.64319105 99.64750289 103 73 C102.23300781 72.23042969 101.46601563 71.46085937 100.67578125 70.66796875 C60.44224896 30.55190662 0.26538719 10.92272136 -55.5625 10.625 C-84.14317265 10.79476885 -112.21013892 15.99046123 -139 26 Z " fill="#17A04B" transform="translate(305,5)"/>
<path d="M0 0 C5.28 0 10.56 0 16 0 C20.12220724 9.63632862 23.76380988 19.39169383 27.3125 29.25 C27.86757275 30.78525237 28.42290965 32.32040927 28.97851562 33.85546875 C30.32204992 37.56922182 31.66203176 41.28423819 33 45 C33.03758423 43.06181396 33.03758423 43.06181396 33.07592773 41.08447266 C33.16991624 36.30230344 33.27015766 31.52028238 33.37231445 26.73828125 C33.41569577 24.66637634 33.45736846 22.59443493 33.49731445 20.52246094 C33.55493965 17.54871609 33.61865625 14.57515552 33.68359375 11.6015625 C33.70866249 10.20618759 33.70866249 10.20618759 33.73423767 8.78262329 C33.75418289 7.92188202 33.77412811 7.06114075 33.79467773 6.17431641 C33.81022202 5.41486725 33.8257663 4.65541809 33.84178162 3.87295532 C34 2 34 2 35 0 C40.28 0 45.56 0 51 0 C52.65669018 3.31338036 52.13805295 7.01427235 52.12939453 10.65649414 C52.13114685 11.55250839 52.13289917 12.44852264 52.13470459 13.37168884 C52.13911743 16.34286416 52.13618734 19.31398029 52.1328125 22.28515625 C52.13348564 24.34256502 52.13445575 26.39997371 52.13571167 28.4573822 C52.13718782 32.77245846 52.13503649 37.08751404 52.13037109 41.40258789 C52.12467029 46.94692916 52.12795556 52.49122206 52.13394356 58.03556156 C52.13754834 62.28446317 52.13641103 66.53335322 52.13381577 70.78225517 C52.13314645 72.82729536 52.13397507 74.87233658 52.13629532 76.91737556 C52.13882087 79.76924568 52.1349828 82.62103623 52.12939453 85.47290039 C52.13141876 86.32643097 52.13344299 87.17996155 52.13552856 88.05935669 C52.11426316 93.88573684 52.11426316 93.88573684 51 95 C48.30345146 95.07319621 45.63308542 95.09242537 42.9375 95.0625 C42.17888672 95.05798828 41.42027344 95.05347656 40.63867188 95.04882812 C38.75908129 95.0370068 36.87953101 95.01907078 35 95 C33.54185643 91.03934575 32.08524982 87.07813018 30.62988281 83.11645508 C30.13776086 81.7774441 29.6452659 80.43857013 29.15234375 79.09985352 C25.34649347 68.76244667 21.6667382 58.38909156 18 48 C17.67 63.51 17.34 79.02 17 95 C11.39 95 5.78 95 0 95 C0 63.65 0 32.3 0 0 Z " fill="#17A04B" transform="translate(77,239)"/>
<path d="M0 0 C1.82337891 -0.04350586 1.82337891 -0.04350586 3.68359375 -0.08789062 C10.57282744 -0.1367238 15.24232331 -0.00938794 20.75 4.3125 C24.31982693 9.90522886 24.87307201 15.20251151 24.89526367 21.7199707 C24.90164352 22.99512039 24.90802338 24.27027008 24.91459656 25.58406067 C24.91612564 26.96880047 24.91723938 28.35354079 24.91796875 29.73828125 C24.92118545 31.16928643 24.92454984 32.60029128 24.92805481 34.03129578 C24.93403294 37.02795168 24.9358961 40.02457879 24.93530273 43.02124023 C24.93520128 46.84412597 24.94884226 50.6668253 24.96607494 54.48966694 C24.97724405 57.4452345 24.97922043 60.40075772 24.97869301 63.35634422 C24.97986616 64.76481963 24.98425025 66.17329644 24.99202538 67.58175087 C25.08161862 85.4900143 25.08161862 85.4900143 20.375 91.1875 C13.94453815 96.39311198 7.90614014 95.67937953 -0.125 95.6875 C-1.39214844 95.71199219 -2.65929687 95.73648438 -3.96484375 95.76171875 C-15.55881377 95.79829279 -15.55881377 95.79829279 -20.25 91.3125 C-23.9715996 86.17925917 -24.37541719 81.89043302 -24.41113281 75.65136719 C-24.41609772 74.99063705 -24.42106262 74.32990692 -24.42617798 73.64915466 C-24.44074893 71.46921738 -24.44759388 69.28935293 -24.453125 67.109375 C-24.4588816 65.58725992 -24.46463926 64.06514485 -24.47039795 62.54302979 C-24.48089421 59.35208805 -24.48674554 56.1611714 -24.49023438 52.97021484 C-24.49570948 48.89724655 -24.51972199 44.82461416 -24.54820633 40.75175095 C-24.566906 37.60659848 -24.57204224 34.46152566 -24.57357025 31.31632233 C-24.57658192 29.81572895 -24.58455984 28.31513647 -24.59775543 26.81459808 C-24.7184504 12.03197555 -24.7184504 12.03197555 -21.25 5.3125 C-14.9597726 -0.82047171 -8.2980678 0.06516807 0 0 Z M-7.25 18.3125 C-7.55700227 20.88740672 -7.55700227 20.88740672 -7.50878906 23.92382812 C-7.51509338 25.09844604 -7.52139771 26.27306396 -7.52789307 27.48327637 C-7.5238446 28.75723267 -7.51979614 30.03118896 -7.515625 31.34375 C-7.51753845 32.64574341 -7.5194519 33.94773682 -7.52142334 35.28918457 C-7.52437391 38.04651628 -7.52007924 40.80371849 -7.51074219 43.56103516 C-7.49934753 47.09877073 -7.50590738 50.63620287 -7.51788712 54.17392731 C-7.52684394 57.54305934 -7.5205764 60.91210934 -7.515625 64.28125 C-7.51967346 65.5552063 -7.52372192 66.8291626 -7.52789307 68.14172363 C-7.52158875 69.31634155 -7.51528442 70.49095947 -7.50878906 71.70117188 C-7.50719788 72.7388269 -7.50560669 73.77648193 -7.50396729 74.84558105 C-7.49399022 77.48916033 -7.49399022 77.48916033 -5.25 79.3125 C-2.64952066 79.59396904 -2.64952066 79.59396904 0.25 79.5 C1.2296875 79.49355469 2.209375 79.48710937 3.21875 79.48046875 C5.74369384 79.47690726 5.74369384 79.47690726 7.75 78.3125 C7.79629055 70.5240365 7.83185242 62.73560508 7.85362434 54.94703865 C7.86407249 51.33069127 7.87825032 47.71443784 7.90087891 44.09814453 C7.9225708 40.60981189 7.93456085 37.12156976 7.93975449 33.6331749 C7.94526169 31.65110029 7.96088034 29.66906221 7.97659302 27.68704224 C7.97674408 26.48594818 7.97689514 25.28485413 7.97705078 24.04736328 C7.981492 22.98591095 7.98593323 21.92445862 7.99050903 20.83084106 C8.00332314 18.14137043 8.00332314 18.14137043 5.75 16.3125 C3.15083917 15.99300269 3.15083917 15.99300269 0.25 16.0625 C-0.7296875 16.05734375 -1.709375 16.0521875 -2.71875 16.046875 C-5.41888152 16.06174955 -5.41888152 16.06174955 -7.25 18.3125 Z " fill="#18A04C" transform="translate(219.25,238.6875)"/>
<path d="M0 0 C0.80401245 0.09327072 1.6080249 0.18654144 2.43640137 0.28263855 C3.04584595 0.35541519 3.65529053 0.42819183 4.28320312 0.50317383 C5.14915323 4.4302429 6.01501942 8.35733047 6.88085938 12.28442383 C7.15085754 13.50898788 7.42085571 14.73355194 7.69903564 15.995224 C9.18080369 22.71648676 10.66182377 29.43791299 12.14135742 36.15966797 C12.58757152 38.18675802 13.0337913 40.21384681 13.48001671 42.24093437 C13.77627657 43.58678313 14.0725221 44.93263503 14.36875343 46.27849007 C15.96109332 53.51225011 17.5563646 60.7453294 19.16468811 67.97555542 C19.8308253 70.97096267 20.49418067 73.9669812 21.1569519 76.96313477 C21.58616964 78.8977045 22.01972057 80.83131123 22.45336914 82.76489258 C22.82739868 84.4587207 22.82739868 84.4587207 23.20898438 86.18676758 C23.41950439 87.13092529 23.63002441 88.07508301 23.84692383 89.04785156 C24.28320312 91.50317383 24.28320312 91.50317383 24.28320312 95.50317383 C18.67320312 95.50317383 13.06320312 95.50317383 7.28320312 95.50317383 C4.28320312 83.12817383 4.28320312 83.12817383 4.28320312 77.50317383 C-2.64679688 77.50317383 -9.57679688 77.50317383 -16.71679688 77.50317383 C-17.02617187 79.73067383 -17.33554688 81.95817383 -17.65429688 84.25317383 C-18.1874025 88.09153431 -18.7761451 91.74056674 -19.71679688 95.50317383 C-25.32679688 95.50317383 -30.93679687 95.50317383 -36.71679688 95.50317383 C-36.06731379 85.60870493 -33.83633611 76.1011171 -31.71679688 66.44067383 C-31.31664685 64.59896608 -30.91691404 62.75716764 -30.51757812 60.9152832 C-29.68379087 57.07516617 -28.84629318 53.23588456 -28.00585938 49.3972168 C-26.92744302 44.47101009 -25.8564012 39.54323655 -24.7878418 34.61488342 C-23.96477586 30.82098954 -23.1388819 27.02771606 -22.31201172 23.23464966 C-21.91585336 21.41665572 -21.52034335 19.59852037 -21.12548828 17.78024292 C-20.5753207 15.24978066 -20.02159777 12.72012369 -19.46679688 10.19067383 C-19.3036499 9.43746353 -19.14050293 8.68425323 -18.97241211 7.90821838 C-17.83129871 2.7321775 -17.83129871 2.7321775 -16.71679688 0.50317383 C-14.31054688 0.05395508 -14.31054688 0.05395508 -11.21679688 -0.18432617 C-10.21648437 -0.27069336 -9.21617187 -0.35706055 -8.18554688 -0.44604492 C-5.35541226 -0.48747707 -2.79767641 -0.32866 0 0 Z M-6.71679688 25.50317383 C-7.51180753 29.41916918 -8.30216951 33.33608974 -9.09179688 37.25317383 C-9.31351563 38.34500977 -9.53523438 39.4368457 -9.76367188 40.56176758 C-11.23102724 47.85538689 -12.52968785 55.15863017 -13.71679688 62.50317383 C-9.09679687 62.50317383 -4.47679687 62.50317383 0.28320312 62.50317383 C-0.46834478 54.56440921 -1.84737667 46.78214161 -3.27929688 38.94067383 C-3.51326172 37.64581055 -3.74722656 36.35094727 -3.98828125 35.0168457 C-4.56176591 31.84512444 -5.13800548 28.67393022 -5.71679688 25.50317383 C-6.04679687 25.50317383 -6.37679688 25.50317383 -6.71679688 25.50317383 Z " fill="#17A04B" transform="translate(263.716796875,72.496826171875)"/>
<path d="M0 0 C4.8820439 5.62174752 5.51732791 12.09151414 5.4609375 19.22265625 C5.46380768 20.03818466 5.46667786 20.85371307 5.46963501 21.69395447 C5.47166301 23.40575868 5.46622233 25.11758673 5.45361328 26.8293457 C5.43751985 29.43428763 5.45351524 32.03768326 5.47265625 34.64257812 C5.470674 36.31510755 5.4668307 37.98763603 5.4609375 39.66015625 C5.47004654 40.81512352 5.47004654 40.81512352 5.4793396 41.99342346 C5.3996892 48.17947715 4.27128878 53.10485598 -0.1875 57.6875 C-6.00012774 61.25433975 -11.76099 61.65733235 -18.375 61.5 C-19.10654297 61.49097656 -19.83808594 61.48195313 -20.59179688 61.47265625 C-22.37384298 61.44936153 -24.15571759 61.4135019 -25.9375 61.375 C-25.92964478 62.73032837 -25.92964478 62.73032837 -25.92163086 64.11303711 C-25.90462314 67.45451489 -25.89206667 70.79594692 -25.88256836 74.13745117 C-25.87752899 75.58570073 -25.87069747 77.03394517 -25.86206055 78.48217773 C-25.84997753 80.55974588 -25.84426789 82.63724697 -25.83984375 84.71484375 C-25.83198853 86.59224243 -25.83198853 86.59224243 -25.82397461 88.50756836 C-25.9375 91.375 -25.9375 91.375 -26.9375 92.375 C-29.6148138 92.47481214 -32.26054175 92.51379875 -34.9375 92.5 C-36.06285156 92.50580078 -36.06285156 92.50580078 -37.2109375 92.51171875 C-42.81088947 92.50161053 -42.81088947 92.50161053 -43.9375 91.375 C-44.03806691 88.48893984 -44.07365375 85.62677425 -44.06689453 82.74023438 C-44.06864685 81.83461258 -44.07039917 80.92899078 -44.07220459 79.9959259 C-44.07662454 76.98684807 -44.07368461 73.97782848 -44.0703125 70.96875 C-44.0709855 68.88749175 -44.07195549 66.80623357 -44.07321167 64.72497559 C-44.07468884 60.35684462 -44.07253348 55.98873407 -44.06787109 51.62060547 C-44.0621738 46.00785447 -44.0654527 40.39515128 -44.07144356 34.78240204 C-44.07504866 30.48288611 -44.07391082 26.18338162 -44.07131577 21.88386536 C-44.07064636 19.81370539 -44.0714754 17.7435444 -44.07379532 15.67338562 C-44.07632102 12.78548414 -44.07248242 9.89766122 -44.06689453 7.00976562 C-44.06891876 6.14531326 -44.07094299 5.2808609 -44.07302856 4.39021301 C-44.05176237 -1.51073763 -44.05176237 -1.51073763 -42.9375 -2.625 C-41.56872676 -2.78193774 -40.19258434 -2.8758053 -38.81640625 -2.94140625 C-37.96240234 -2.98330078 -37.10839844 -3.02519531 -36.22851562 -3.06835938 C-34.87790039 -3.12733398 -34.87790039 -3.12733398 -33.5 -3.1875 C-32.2015918 -3.25227539 -32.2015918 -3.25227539 -30.87695312 -3.31835938 C-7.94331477 -4.39417413 -7.94331477 -4.39417413 0 0 Z M-25.9375 13.375 C-25.9375 23.605 -25.9375 33.835 -25.9375 44.375 C-21.9775 44.375 -18.0175 44.375 -13.9375 44.375 C-10.75616766 39.60300148 -11.60933095 34.48452168 -11.625 28.875 C-11.60888672 27.72128906 -11.59277344 26.56757812 -11.57617188 25.37890625 C-11.57552734 24.27417969 -11.57488281 23.16945313 -11.57421875 22.03125 C-11.57123779 21.01869141 -11.56825684 20.00613281 -11.56518555 18.96289062 C-11.73006728 15.98322535 -11.73006728 15.98322535 -14.9375 13.375 C-18.5675 13.375 -22.1975 13.375 -25.9375 13.375 Z " fill="#17A14B" transform="translate(217.9375,75.625)"/>
<path d="M0 0 C1.82917969 -0.02416992 1.82917969 -0.02416992 3.6953125 -0.04882812 C5.46648437 -0.04979492 5.46648437 -0.04979492 7.2734375 -0.05078125 C8.34770996 -0.05376221 9.42198242 -0.05674316 10.52880859 -0.05981445 C14.14612059 0.37516432 16.51864069 1.4303013 19.625 3.3125 C23.11550927 7.84072825 24.75889053 11.29168644 24.72265625 16.98046875 C24.71943359 17.87314453 24.71621094 18.76582031 24.71289062 19.68554688 C24.70032227 21.07870117 24.70032227 21.07870117 24.6875 22.5 C24.68298828 23.44037109 24.67847656 24.38074219 24.67382812 25.34960938 C24.66204626 27.67063712 24.64559558 29.99153644 24.625 32.3125 C21.97909986 32.33934679 19.33346904 32.35926357 16.6875 32.375 C15.93275391 32.38337891 15.17800781 32.39175781 14.40039062 32.40039062 C12.47505687 32.40902441 10.54964419 32.36474333 8.625 32.3125 C6.30687616 29.99437616 7.16422272 24.35685954 7.00390625 21.21875 C6.81634766 19.78015625 6.81634766 19.78015625 6.625 18.3125 C4.37987738 17.18993869 3.11043351 17.17836238 0.625 17.1875 C-0.07625 17.18492187 -0.7775 17.18234375 -1.5 17.1796875 C-3.46653775 17.19872764 -3.46653775 17.19872764 -5.375 18.3125 C-5.39812821 25.98786627 -5.41591753 33.66322896 -5.42681217 41.33862209 C-5.43203995 44.90227422 -5.43913569 48.46590257 -5.45043945 52.02954102 C-5.46334176 56.12256097 -5.46822906 60.2155558 -5.47265625 64.30859375 C-5.47781754 65.59398544 -5.48297882 66.87937714 -5.48829651 68.20372009 C-5.48837204 69.38486893 -5.48844757 70.56601776 -5.48852539 71.78295898 C-5.49185631 73.35182106 -5.49185631 73.35182106 -5.49525452 74.95237732 C-5.64150985 77.26939295 -5.64150985 77.26939295 -4.375 78.3125 C-2.71070949 78.41073937 -1.04218069 78.44223631 0.625 78.4375 C1.5325 78.44007813 2.44 78.44265625 3.375 78.4453125 C5.59466611 78.56423779 5.59466611 78.56423779 6.625 77.3125 C6.83431897 75.14953727 6.99297069 72.9815529 7.125 70.8125 C7.51388889 64.42361111 7.51388889 64.42361111 8.625 63.3125 C11.32154854 63.23930379 13.99191458 63.22007463 16.6875 63.25 C17.82541992 63.25676758 17.82541992 63.25676758 18.98632812 63.26367188 C20.86591871 63.2754932 22.74546899 63.29342922 24.625 63.3125 C24.71297281 66.49982254 24.76571341 69.68682788 24.8125 72.875 C24.83763672 73.77025391 24.86277344 74.66550781 24.88867188 75.58789062 C24.9515345 81.30838977 24.39766497 85.27308286 21.625 90.3125 C15.11118216 96.34969702 9.4983636 95.56069707 0.9375 95.625 C-0.33029297 95.65400391 -1.59808594 95.68300781 -2.90429688 95.71289062 C-9.90570035 95.76051922 -14.78983862 95.74376864 -20.375 91.3125 C-24.10294784 85.59631331 -24.49664493 79.67494721 -24.52026367 72.9909668 C-24.52983345 71.14325935 -24.52983345 71.14325935 -24.53959656 69.25822449 C-24.54070938 67.93937759 -24.5418222 66.6205307 -24.54296875 65.26171875 C-24.54618706 63.87937893 -24.54955155 62.49703944 -24.55305481 61.11470032 C-24.55902673 58.22237357 -24.56089674 55.33007661 -24.56030273 52.43774414 C-24.56020129 48.75286617 -24.57384385 45.06818164 -24.59107494 41.38334942 C-24.60225836 38.52896772 -24.60422 35.67463184 -24.60369301 32.82023048 C-24.60542882 30.8080108 -24.61622925 28.79580541 -24.62724304 26.78361511 C-24.58575879 10.04685956 -24.58575879 10.04685956 -20 4.375 C-13.61955777 -0.63820461 -7.89778476 -0.02073998 0 0 Z " fill="#16A04B" transform="translate(386.375,238.6875)"/>
<path d="M0 0 C0.93767212 -0.00315216 1.87534424 -0.00630432 2.84143066 -0.009552 C3.86119995 -0.00752777 4.88096924 -0.00550354 5.93164062 -0.00341797 C7.49078186 -0.00485306 7.49078186 -0.00485306 9.0814209 -0.00631714 C11.28393616 -0.0069991 13.48645342 -0.00514374 15.68896484 -0.00097656 C19.07328782 0.00437146 22.45747806 -0.00092105 25.84179688 -0.00732422 C27.97591175 -0.00666344 30.11002655 -0.00538228 32.24414062 -0.00341797 C33.26390991 -0.0054422 34.2836792 -0.00746643 35.33435059 -0.009552 C36.74085876 -0.00482376 36.74085876 -0.00482376 38.17578125 0 C39.42035095 0.00119339 39.42035095 0.00119339 40.69006348 0.00241089 C42.58789062 0.12939453 42.58789062 0.12939453 43.58789062 1.12939453 C43.68698365 3.46099508 43.71759567 5.79569395 43.71289062 8.12939453 C43.71675781 10.04751953 43.71675781 10.04751953 43.72070312 12.00439453 C43.58789062 15.12939453 43.58789062 15.12939453 42.58789062 16.12939453 C40.29637645 16.21730428 38.00216538 16.23633491 35.70898438 16.22705078 C34.67899071 16.22492836 34.67899071 16.22492836 33.62818909 16.22276306 C31.42721261 16.21714932 29.22633654 16.2045946 27.02539062 16.19189453 C25.5364598 16.1868813 24.04752738 16.18231808 22.55859375 16.17822266 C18.90162257 16.16802474 15.24486945 16.14845232 11.58789062 16.12939453 C11.58789062 23.71939453 11.58789062 31.30939453 11.58789062 39.12939453 C14.16923828 39.11199219 14.16923828 39.11199219 16.80273438 39.09423828 C19.04361871 39.0848622 21.28450422 39.0757618 23.52539062 39.06689453 C24.66169922 39.05851562 25.79800781 39.05013672 26.96875 39.04150391 C28.04833984 39.03828125 29.12792969 39.03505859 30.24023438 39.03173828 C31.74058228 39.02388306 31.74058228 39.02388306 33.27124023 39.01586914 C35.58789062 39.12939453 35.58789062 39.12939453 36.58789062 40.12939453 C36.68764095 42.64075558 36.72671246 45.11842868 36.71289062 47.62939453 C36.71869141 48.68320312 36.71869141 48.68320312 36.72460938 49.75830078 C36.7145044 55.00278075 36.7145044 55.00278075 35.58789062 56.12939453 C33.80717816 56.21665676 32.02305922 56.23638494 30.24023438 56.22705078 C29.16064453 56.22382813 28.08105469 56.22060547 26.96875 56.21728516 C25.83244141 56.20890625 24.69613281 56.20052734 23.52539062 56.19189453 C22.38521484 56.18738281 21.24503906 56.18287109 20.0703125 56.17822266 C17.24281645 56.16639213 14.41534718 56.14845604 11.58789062 56.12939453 C11.58789062 63.71939453 11.58789062 71.30939453 11.58789062 79.12939453 C13.81410156 79.11779297 16.0403125 79.10619141 18.33398438 79.09423828 C20.48185076 79.08644731 22.6297156 79.08037078 24.77758789 79.07446289 C26.27433981 79.06942332 27.77108678 79.06259166 29.26782227 79.05395508 C31.4148887 79.04187294 33.56189025 79.03616262 35.70898438 79.03173828 C37.64922485 79.02388306 37.64922485 79.02388306 39.62866211 79.01586914 C42.58789062 79.12939453 42.58789062 79.12939453 43.58789062 80.12939453 C43.68698365 82.46099508 43.71759567 84.79569395 43.71289062 87.12939453 C43.71675781 89.04751953 43.71675781 89.04751953 43.72070312 91.00439453 C43.58789062 94.12939453 43.58789062 94.12939453 42.58789062 95.12939453 C41.1198377 95.22762197 39.64711602 95.25737823 38.17578125 95.25878906 C37.23810913 95.26194122 36.30043701 95.26509338 35.33435059 95.26834106 C34.3145813 95.26631683 33.29481201 95.2642926 32.24414062 95.26220703 C30.68499939 95.26364212 30.68499939 95.26364212 29.09436035 95.2651062 C26.89184509 95.26578816 24.68932783 95.2639328 22.48681641 95.25976562 C19.10249343 95.25441761 15.71830319 95.25971012 12.33398438 95.26611328 C10.1998695 95.2654525 8.0657547 95.26417135 5.93164062 95.26220703 C4.91187134 95.26423126 3.89210205 95.26625549 2.84143066 95.26834106 C1.43492249 95.26361282 1.43492249 95.26361282 0 95.25878906 C-0.82971313 95.25799347 -1.65942627 95.25719788 -2.51428223 95.25637817 C-4.41210938 95.12939453 -4.41210938 95.12939453 -5.41210938 94.12939453 C-5.51267629 91.24333438 -5.54826313 88.38116879 -5.54150391 85.49462891 C-5.54325623 84.58900711 -5.54500854 83.68338531 -5.54681396 82.75032043 C-5.55123391 79.7412426 -5.54829399 76.73222301 -5.54492188 73.72314453 C-5.54559487 71.64188628 -5.54656486 69.5606281 -5.54782104 67.47937012 C-5.54929821 63.11123915 -5.54714286 58.7431286 -5.54248047 54.375 C-5.53678317 48.762249 -5.54006208 43.14954581 -5.54605293 37.53679657 C-5.54965804 33.23728065 -5.54852019 28.93777615 -5.54592514 24.63825989 C-5.54525573 22.56809992 -5.54608478 20.49793893 -5.54840469 18.42778015 C-5.55093039 15.53987867 -5.5470918 12.65205575 -5.54150391 9.76416016 C-5.54352814 8.89970779 -5.54555237 8.03525543 -5.54763794 7.14460754 C-5.52190887 0.00529483 -5.52190887 0.00529483 0 0 Z " fill="#199F4C" transform="translate(309.412109375,238.87060546875)"/>
<path d="M0 0 C0.93767212 -0.00315216 1.87534424 -0.00630432 2.84143066 -0.009552 C3.86119995 -0.00752777 4.88096924 -0.00550354 5.93164062 -0.00341797 C7.49078186 -0.00485306 7.49078186 -0.00485306 9.0814209 -0.00631714 C11.28393616 -0.0069991 13.48645342 -0.00514374 15.68896484 -0.00097656 C19.07328782 0.00437146 22.45747806 -0.00092105 25.84179688 -0.00732422 C27.97591175 -0.00666344 30.11002655 -0.00538228 32.24414062 -0.00341797 C33.26390991 -0.0054422 34.2836792 -0.00746643 35.33435059 -0.009552 C36.74085876 -0.00482376 36.74085876 -0.00482376 38.17578125 0 C39.42035095 0.00119339 39.42035095 0.00119339 40.69006348 0.00241089 C42.58789062 0.12939453 42.58789062 0.12939453 43.58789062 1.12939453 C43.68698365 3.46099508 43.71759567 5.79569395 43.71289062 8.12939453 C43.71675781 10.04751953 43.71675781 10.04751953 43.72070312 12.00439453 C43.58789062 15.12939453 43.58789062 15.12939453 42.58789062 16.12939453 C40.36933798 16.21722995 38.14800566 16.23634062 35.92773438 16.22705078 C34.93103477 16.22492836 34.93103477 16.22492836 33.91419983 16.22276306 C31.78455163 16.21714971 29.65500723 16.20459507 27.52539062 16.19189453 C26.08463693 16.18688125 24.6438816 16.18231804 23.203125 16.17822266 C19.66464104 16.1680253 16.12638249 16.14845284 12.58789062 16.12939453 C12.58789062 23.71939453 12.58789062 31.30939453 12.58789062 39.12939453 C20.11221836 39.08980619 20.11221836 39.08980619 27.63647461 39.03930664 C29.03361694 39.0355603 29.03361694 39.0355603 30.45898438 39.03173828 C31.41732178 39.02650146 32.37565918 39.02126465 33.36303711 39.01586914 C35.58789062 39.12939453 35.58789062 39.12939453 36.58789062 40.12939453 C36.68764095 42.64075558 36.72671246 45.11842868 36.71289062 47.62939453 C36.71869141 48.68320312 36.71869141 48.68320312 36.72460938 49.75830078 C36.7145044 55.00278075 36.7145044 55.00278075 35.58789062 56.12939453 C33.88016705 56.21653285 32.16890414 56.23639461 30.45898438 56.22705078 C29.42451172 56.22382813 28.39003906 56.22060547 27.32421875 56.21728516 C26.23560547 56.20890625 25.14699219 56.20052734 24.02539062 56.19189453 C22.38666992 56.18512695 22.38666992 56.18512695 20.71484375 56.17822266 C18.00580567 56.1663928 15.29687463 56.14990996 12.58789062 56.12939453 C12.59574585 57.84823853 12.59574585 57.84823853 12.60375977 59.60180664 C12.6218078 63.83780135 12.6333219 68.07379265 12.64282227 72.30981445 C12.64786294 74.14608328 12.65469539 75.98234807 12.66333008 77.81860352 C12.67540735 80.45215854 12.68112144 83.0856607 12.68554688 85.71923828 C12.69070816 86.54528061 12.69586945 87.37132294 12.70118713 88.22239685 C12.70138267 90.19175821 12.64993214 92.16101067 12.58789062 94.12939453 C10.7667306 95.95055456 8.28117298 95.26174533 5.86132812 95.26611328 C4.73597656 95.2603125 4.73597656 95.2603125 3.58789062 95.25439453 C2.46253906 95.26019531 2.46253906 95.26019531 1.31445312 95.26611328 C-4.28549884 95.25600506 -4.28549884 95.25600506 -5.41210938 94.12939453 C-5.51267629 91.24333438 -5.54826313 88.38116879 -5.54150391 85.49462891 C-5.54325623 84.58900711 -5.54500854 83.68338531 -5.54681396 82.75032043 C-5.55123391 79.7412426 -5.54829399 76.73222301 -5.54492188 73.72314453 C-5.54559487 71.64188628 -5.54656486 69.5606281 -5.54782104 67.47937012 C-5.54929821 63.11123915 -5.54714286 58.7431286 -5.54248047 54.375 C-5.53678317 48.762249 -5.54006208 43.14954581 -5.54605293 37.53679657 C-5.54965804 33.23728065 -5.54852019 28.93777615 -5.54592514 24.63825989 C-5.54525573 22.56809992 -5.54608478 20.49793893 -5.54840469 18.42778015 C-5.55093039 15.53987867 -5.5470918 12.65205575 -5.54150391 9.76416016 C-5.54352814 8.89970779 -5.54555237 8.03525543 -5.54763794 7.14460754 C-5.52190887 0.00529483 -5.52190887 0.00529483 0 0 Z " fill="#16A14B" transform="translate(144.412109375,238.87060546875)"/>
<path d="M0 0 C1.49121778 2.98243555 1.13001472 6.02615752 1.11352539 9.29541016 C1.11367142 10.04672714 1.11381744 10.79804413 1.1139679 11.5721283 C1.11326996 14.0611355 1.10548314 16.55006833 1.09765625 19.0390625 C1.09579165 20.76256265 1.09436794 22.48606334 1.09336853 24.20956421 C1.08954669 28.75025897 1.07971922 33.29092185 1.06866455 37.831604 C1.05844329 42.46325245 1.05386937 47.09490603 1.04882812 51.7265625 C1.03809667 60.81772236 1.02102422 69.90885853 1 79 C1.87325928 78.99476318 2.74651855 78.98952637 3.64624023 78.98413086 C6.87589273 78.96712249 10.10552245 78.95456631 13.33520508 78.94506836 C14.73495228 78.9400292 16.1346942 78.93319784 17.53442383 78.92456055 C19.54245777 78.9124768 21.55052957 78.90730193 23.55859375 78.90234375 C25.37315063 78.89448853 25.37315063 78.89448853 27.22436523 78.88647461 C30 79 30 79 31 80 C31.09909302 82.33160055 31.12970504 84.66629942 31.125 87 C31.12886719 88.918125 31.12886719 88.918125 31.1328125 90.875 C31 94 31 94 30 95 C28.56259647 95.09813987 27.12043673 95.1279828 25.6796875 95.12939453 C24.76203613 95.13254669 23.84438477 95.13569885 22.89892578 95.13894653 C21.90103027 95.1369223 20.90313477 95.13489807 19.875 95.1328125 C18.85776855 95.13376923 17.84053711 95.13472595 16.79248047 95.13571167 C14.63704364 95.13639361 12.48160478 95.13453835 10.32617188 95.13037109 C7.01427629 95.12502305 3.70251633 95.13031563 0.390625 95.13671875 C-1.69791697 95.13605797 -3.78645885 95.13477681 -5.875 95.1328125 C-7.37184326 95.13584885 -7.37184326 95.13584885 -8.89892578 95.13894653 C-9.81657715 95.13579437 -10.73422852 95.13264221 -11.6796875 95.12939453 C-12.49163574 95.12859894 -13.30358398 95.12780334 -14.14013672 95.12698364 C-16 95 -16 95 -17 94 C-17.10056691 91.11393984 -17.13615375 88.25177425 -17.12939453 85.36523438 C-17.13114685 84.45961258 -17.13289917 83.55399078 -17.13470459 82.6209259 C-17.13912454 79.61184807 -17.13618461 76.60282848 -17.1328125 73.59375 C-17.1334855 71.51249175 -17.13445549 69.43123357 -17.13571167 67.34997559 C-17.13718884 62.98184462 -17.13503348 58.61373407 -17.13037109 54.24560547 C-17.1246738 48.63285447 -17.1279527 43.02015128 -17.13394356 37.40740204 C-17.13754866 33.10788611 -17.13641082 28.80838162 -17.13381577 24.50886536 C-17.13314636 22.43870539 -17.1339754 20.3685444 -17.13629532 18.29838562 C-17.13882102 15.41048414 -17.13498242 12.52266122 -17.12939453 9.63476562 C-17.13141876 8.77031326 -17.13344299 7.9058609 -17.13552856 7.01521301 C-17.11426237 1.11426237 -17.11426237 1.11426237 -16 0 C-10.35545932 -0.99027029 -5.63738623 -1.08791664 0 0 Z " fill="#15A24A" transform="translate(314,73)"/>
<path d="M0 0 C15.84 0 31.68 0 48 0 C48 5.28 48 10.56 48 16 C42.72 16 37.44 16 32 16 C32 42.07 32 68.14 32 95 C26.39 95 20.78 95 15 95 C15 68.93 15 42.86 15 16 C10.05 16 5.1 16 0 16 C0 10.72 0 5.44 0 0 Z " fill="#16A14B" transform="translate(249,239)"/>
<path d="M0 0 C5.61 0 11.22 0 17 0 C17 31.35 17 62.7 17 95 C11.39 95 5.78 95 0 95 C0 63.65 0 32.3 0 0 Z " fill="#1A9F4D" transform="translate(49,239)"/>
<path d="M0 0 C2.05078125 0.03255208 4.1015625 0.06510417 6.15234375 0.09765625 C6.15234375 0.42765625 6.15234375 0.75765625 6.15234375 1.09765625 C4.17234375 1.09765625 2.19234375 1.09765625 0.15234375 1.09765625 C0.15234375 31.45765625 0.15234375 61.81765625 0.15234375 93.09765625 C14.34234375 93.42765625 28.53234375 93.75765625 43.15234375 94.09765625 C42.82234375 90.13765625 42.49234375 86.17765625 42.15234375 82.09765625 C39.43833081 80.74064978 37.30388059 80.98527015 34.26953125 81 C32.51962891 81.00483398 32.51962891 81.00483398 30.734375 81.00976562 C29.51105469 81.01814453 28.28773438 81.02652344 27.02734375 81.03515625 C25.79628906 81.03966797 24.56523437 81.04417969 23.296875 81.04882812 C20.24864983 81.06064295 17.20052061 81.07711597 14.15234375 81.09765625 C11.80783604 72.87049297 12.00153308 64.91616075 12.2109375 56.44921875 C12.23970399 54.94471246 12.26735942 53.44018456 12.29396057 51.93563843 C12.36579083 48.00097613 12.44955992 44.06667025 12.53686523 40.13232422 C12.67575257 33.81519036 12.79961562 27.49778074 12.91716194 21.18021774 C12.96037023 18.9781296 13.01074408 16.77628796 13.06187439 14.57437134 C13.08893058 13.22878484 13.11576271 11.88319382 13.14233398 10.53759766 C13.1683519 9.36339264 13.19436981 8.18918762 13.22117615 6.97940063 C13.29168307 4.02653401 13.29168307 4.02653401 12.15234375 1.09765625 C10.13726017 0.36441829 10.13726017 0.36441829 8.15234375 0.09765625 C10.13234375 0.09765625 12.11234375 0.09765625 14.15234375 0.09765625 C15.64356153 3.0800918 15.28235847 6.12381377 15.26586914 9.39306641 C15.26601517 10.14438339 15.26616119 10.89570038 15.26631165 11.66978455 C15.26561371 14.15879175 15.25782689 16.64772458 15.25 19.13671875 C15.2481354 20.8602189 15.24671169 22.58371959 15.24571228 24.30722046 C15.24189044 28.84791522 15.23206297 33.3885781 15.2210083 37.92926025 C15.21078704 42.5609087 15.20621312 47.19256228 15.20117188 51.82421875 C15.19044042 60.91537861 15.17336797 70.00651478 15.15234375 79.09765625 C16.02560303 79.09241943 16.8988623 79.08718262 17.79858398 79.08178711 C21.02823648 79.06477874 24.2578662 79.05222256 27.48754883 79.04272461 C28.88729603 79.03768545 30.28703795 79.03085409 31.68676758 79.0222168 C33.69480152 79.01013305 35.70287332 79.00495818 37.7109375 79 C39.52549438 78.99214478 39.52549438 78.99214478 41.37670898 78.98413086 C44.15234375 79.09765625 44.15234375 79.09765625 45.15234375 80.09765625 C45.25143677 82.4292568 45.28204879 84.76395567 45.27734375 87.09765625 C45.28121094 89.01578125 45.28121094 89.01578125 45.28515625 90.97265625 C45.15234375 94.09765625 45.15234375 94.09765625 44.15234375 95.09765625 C42.71494022 95.19579612 41.27278048 95.22563905 39.83203125 95.22705078 C38.91437988 95.23020294 37.99672852 95.2333551 37.05126953 95.23660278 C36.05337402 95.23457855 35.05547852 95.23255432 34.02734375 95.23046875 C33.0101123 95.23142548 31.99288086 95.2323822 30.94482422 95.23336792 C28.78938739 95.23404986 26.63394853 95.2321946 24.47851562 95.22802734 C21.16662004 95.2226793 17.85486008 95.22797188 14.54296875 95.234375 C12.45442678 95.23371422 10.3658849 95.23243306 8.27734375 95.23046875 C6.78050049 95.2335051 6.78050049 95.2335051 5.25341797 95.23660278 C4.3357666 95.23345062 3.41811523 95.23029846 2.47265625 95.22705078 C1.66070801 95.22625519 0.84875977 95.22545959 0.01220703 95.22463989 C-1.84765625 95.09765625 -1.84765625 95.09765625 -2.84765625 94.09765625 C-2.94822316 91.21159609 -2.98381 88.3494305 -2.97705078 85.46289062 C-2.9788031 84.55726883 -2.98055542 83.65164703 -2.98236084 82.71858215 C-2.98678079 79.70950432 -2.98384086 76.70048473 -2.98046875 73.69140625 C-2.98114175 71.610148 -2.98211174 69.52888982 -2.98336792 67.44763184 C-2.98484509 63.07950087 -2.98268973 58.71139032 -2.97802734 54.34326172 C-2.97233005 48.73051072 -2.97560895 43.11780753 -2.98159981 37.50505829 C-2.98520491 33.20554236 -2.98406707 28.90603787 -2.98147202 24.60652161 C-2.98080261 22.53636164 -2.98163165 20.46620065 -2.98395157 18.39604187 C-2.98647727 15.50814039 -2.98263867 12.62031747 -2.97705078 9.73242188 C-2.97907501 8.86796951 -2.98109924 8.00351715 -2.98318481 7.11286926 C-2.9581145 0.15634855 -2.9581145 0.15634855 0 0 Z " fill="#289254" transform="translate(299.84765625,72.90234375)"/>
<path d="M0 0 C0.33 0 0.66 0 1 0 C1.02685412 2.31243792 1.04632841 4.6249627 1.0625 6.9375 C1.07410156 8.22527344 1.08570313 9.51304687 1.09765625 10.83984375 C1 14 1 14 0 15 C-2.21855264 15.08783542 -4.43988496 15.10694609 -6.66015625 15.09765625 C-7.65685585 15.09553383 -7.65685585 15.09553383 -8.6736908 15.09336853 C-10.80333899 15.08775518 -12.93288339 15.07520054 -15.0625 15.0625 C-16.50325369 15.05748671 -17.94400903 15.05292351 -19.38476562 15.04882812 C-22.92324958 15.03863076 -26.46150813 15.0190583 -30 15 C-30 22.59 -30 30.18 -30 38 C-22.47567226 37.96041166 -22.47567226 37.96041166 -14.95141602 37.90991211 C-13.55427368 37.90616577 -13.55427368 37.90616577 -12.12890625 37.90234375 C-11.17056885 37.89710693 -10.21223145 37.89187012 -9.22485352 37.88647461 C-7 38 -7 38 -6 39 C-5.90024968 41.51136104 -5.86117817 43.98903415 -5.875 46.5 C-5.86919922 47.55380859 -5.86919922 47.55380859 -5.86328125 48.62890625 C-5.87338622 53.87338622 -5.87338622 53.87338622 -7 55 C-8.70772358 55.08713831 -10.41898649 55.10700007 -12.12890625 55.09765625 C-13.16337891 55.09443359 -14.19785156 55.09121094 -15.26367188 55.08789062 C-16.35228516 55.07951172 -17.44089844 55.07113281 -18.5625 55.0625 C-20.2012207 55.05573242 -20.2012207 55.05573242 -21.87304688 55.04882812 C-24.58208495 55.03699826 -27.29101599 55.02051543 -30 55 C-29.99214478 56.71884399 -29.99214478 56.71884399 -29.98413086 58.47241211 C-29.96608283 62.70840682 -29.95456872 66.94439812 -29.94506836 71.18041992 C-29.94002769 73.01668875 -29.93319523 74.85295354 -29.92456055 76.68920898 C-29.91248328 79.32276401 -29.90676919 81.95626616 -29.90234375 84.58984375 C-29.89718246 85.41588608 -29.89202118 86.24192841 -29.88670349 87.09300232 C-29.88650795 89.06236368 -29.93795848 91.03161614 -30 93 C-31.82116003 94.82116003 -34.30671764 94.1323508 -36.7265625 94.13671875 C-37.85191406 94.13091797 -37.85191406 94.13091797 -39 94.125 C-40.12535156 94.13080078 -40.12535156 94.13080078 -41.2734375 94.13671875 C-46.87338947 94.12661053 -46.87338947 94.12661053 -48 93 C-48.09522418 90.13908182 -48.12553326 87.30236379 -48.11352539 84.44116211 C-48.11367142 83.54368759 -48.11381744 82.64621307 -48.1139679 81.72154236 C-48.11326842 78.74011866 -48.10547441 75.7587566 -48.09765625 72.77734375 C-48.09579219 70.71611058 -48.09436823 68.65487696 -48.09336853 66.59364319 C-48.08954237 61.1569599 -48.07971126 55.72030314 -48.06866455 50.28363037 C-48.05845253 44.74052286 -48.05387136 39.19741108 -48.04882812 33.65429688 C-48.03808908 22.76951957 -48.02101149 11.88476198 -48 1 C-47.01 1.495 -47.01 1.495 -46 2 C-45.67 31.7 -45.34 61.4 -45 92 C-41.7 92.33 -38.4 92.66 -35 93 C-34.34 91.68 -33.68 90.36 -33 89 C-32.34 89.33 -31.68 89.66 -31 90 C-31.33 78.12 -31.66 66.24 -32 54 C-31.01 54 -30.02 54 -29 54 C-28.67 52.68 -28.34 51.36 -28 50 C-27.67 50.66 -27.34 51.32 -27 52 C-20.4 52.33 -13.8 52.66 -7 53 C-7.33 48.38 -7.66 43.76 -8 39 C-9.49273437 39.08378906 -10.98546875 39.16757812 -12.5234375 39.25390625 C-14.47394317 39.35705799 -16.42446487 39.45990692 -18.375 39.5625 C-19.85226563 39.64661133 -19.85226563 39.64661133 -21.359375 39.73242188 C-22.77089844 39.80493164 -22.77089844 39.80493164 -24.2109375 39.87890625 C-25.08024902 39.9260376 -25.94956055 39.97316895 -26.84521484 40.02172852 C-29 40 -29 40 -31 39 C-31.7566506 35.61720393 -31.9399501 32.13680517 -32.25 28.6875 C-32.353125 27.72392578 -32.45625 26.76035156 -32.5625 25.76757812 C-32.69398438 24.37249023 -32.69398438 24.37249023 -32.828125 22.94921875 C-32.9504248 21.67050903 -32.9504248 21.67050903 -33.07519531 20.3659668 C-33 18 -33 18 -31 14 C-24.73 13.67 -18.46 13.34 -12 13 C-11.67 12.01 -11.34 11.02 -11 10 C-9.68 10 -8.36 10 -7 10 C-6.505 10.99 -6.505 10.99 -6 12 C-4.35 12 -2.7 12 -1 12 C-0.67 8.04 -0.34 4.08 0 0 Z " fill="#2C8C51" transform="translate(187,240)"/>
<path d="M0 0 C5.61 0 11.22 0 17 0 C17.33 28.38 17.66 56.76 18 86 C19.65 80.72 21.3 75.44 23 70 C23.33 70 23.66 70 24 70 C24.495 74.455 24.495 74.455 25 79 C24.01 79.495 24.01 79.495 23 80 C21.80020809 83.14945377 20.92892117 86.28939237 20.125 89.5625 C18.95398786 93.14059266 17.51290967 95.23579936 15 98 C15 97.01 15 96.02 15 95 C10.05 95 5.1 95 0 95 C0 82.13 0 69.26 0 56 C-3.96 56 -7.92 56 -12 56 C-11.34 55.01 -10.68 54.02 -10 53 C-4.78788648 52.57966826 -2.76220304 52.61889848 2 55 C2 67.54 2 80.08 2 93 C4.97 93 7.94 93 11 93 C11.33 91.68 11.66 90.36 12 89 C13.98 88.505 13.98 88.505 16 88 C15.68872484 86.41642541 15.37592711 84.83315007 15.0625 83.25 C14.80146484 81.92742187 14.80146484 81.92742187 14.53515625 80.578125 C14.07020819 78.06736499 14.07020819 78.06736499 13.30859375 75.984375 C13 74 13 74 13.96078491 71.80158997 C15.20275259 68.45340516 15.27911376 65.75961361 15.31884766 62.19018555 C15.32889328 61.52621262 15.3389389 60.86223969 15.34928894 60.17814636 C15.3800195 57.99767877 15.3971274 55.81733339 15.4140625 53.63671875 C15.43278235 52.11927751 15.45235637 50.60184658 15.4727478 49.08442688 C15.52398891 45.10116673 15.56365736 41.11787287 15.60089111 37.13446045 C15.64098121 33.06546746 15.69205067 28.99661377 15.7421875 24.92773438 C15.83885182 16.95191123 15.92227139 8.97603019 16 1 C11.05 1.33 6.1 1.66 1 2 C1 14.21 1 26.42 1 39 C0.67 39 0.34 39 0 39 C0 26.13 0 13.26 0 0 Z " fill="#299F58" transform="translate(453,239)"/>
<path d="M0 0 C15.84 0 31.68 0 48 0 C48 5.28 48 10.56 48 16 C42.72 16 37.44 16 32 16 C32 42.07 32 68.14 32 95 C26.39 95 20.78 95 15 95 C15 68.93 15 42.86 15 16 C10.05 16 5.1 16 0 16 C0 10.72 0 5.44 0 0 Z M1 1 C1 5.29 1 9.58 1 14 C5.58984375 14.34179688 5.58984375 14.34179688 10.1796875 14.68359375 C13 15 13 15 15 16 C15.00586624 16.94769257 15.01173248 17.89538513 15.01777649 18.87179565 C15.0749121 27.78932399 15.14762508 36.70660631 15.23571491 45.6238842 C15.28050231 50.20871103 15.31973964 54.79344727 15.34643555 59.37841797 C15.37238548 63.80060335 15.41272796 68.22244169 15.46318626 72.64441299 C15.47991149 74.33411477 15.49139042 76.02387666 15.49761391 77.71364975 C15.50719403 80.07493495 15.53517773 82.43532088 15.56762695 84.79638672 C15.56619186 85.49985229 15.56475677 86.20331787 15.5632782 86.92810059 C15.57047311 89.07750871 15.57047311 89.07750871 16 92 C19.42094242 94.28062828 20.68187222 94.21925007 24.6875 94.125 C25.68136719 94.10695313 26.67523438 94.08890625 27.69921875 94.0703125 C28.45847656 94.04710937 29.21773438 94.02390625 30 94 C31.49121778 91.01756445 31.13001472 87.97384248 31.11352539 84.70458984 C31.11367142 83.95327286 31.11381744 83.20195587 31.1139679 82.4278717 C31.11326996 79.9388645 31.10548314 77.44993167 31.09765625 74.9609375 C31.09579165 73.23743735 31.09436794 71.51393666 31.09336853 69.79043579 C31.08954669 65.24974103 31.07971922 60.70907815 31.06866455 56.168396 C31.05844329 51.53674755 31.05386937 46.90509397 31.04882812 42.2734375 C31.03809667 33.18227764 31.02102422 24.09114147 31 15 C34.01031744 14.06576355 34.86650268 13.95550089 38 15 C41.58343976 15.16677282 41.58343976 15.16677282 45 15 C45.33 14.67 45.66 14.34 46 14 C46 9.71 46 5.42 46 1 C31.15 1 16.3 1 1 1 Z " fill="#2A9956" transform="translate(249,239)"/>
<path d="M0 0 C3.55586962 0.96104584 4.76801719 1.62717049 6.75 4.8125 C8.68878827 9.75641009 9.12723385 14.1122992 9.14526367 19.4074707 C9.15164352 20.68262039 9.15802338 21.95777008 9.16459656 23.27156067 C9.16612564 24.65630047 9.16723938 26.04104079 9.16796875 27.42578125 C9.17118545 28.85678643 9.17454984 30.28779128 9.17805481 31.71879578 C9.18403294 34.71545168 9.1858961 37.71207879 9.18530273 40.70874023 C9.18520128 44.53162597 9.19884226 48.3543253 9.21607494 52.17716694 C9.22724405 55.1327345 9.22922043 58.08825772 9.22869301 61.04384422 C9.22986616 62.45231963 9.23425025 63.86079644 9.24202538 65.26925087 C9.33161862 83.1775143 9.33161862 83.1775143 4.625 88.875 C0.43140356 92.26981616 -2.221627 93.25296141 -7.640625 93.1953125 C-8.71054688 93.18886719 -9.78046875 93.18242187 -10.8828125 93.17578125 C-12.54957031 93.15064453 -12.54957031 93.15064453 -14.25 93.125 C-15.93996094 93.11146484 -15.93996094 93.11146484 -17.6640625 93.09765625 C-20.44292365 93.07410658 -23.2213539 93.0412168 -26 93 C-26 92.67 -26 92.34 -26 92 C-25.32420898 91.98541748 -24.64841797 91.97083496 -23.95214844 91.95581055 C-20.88419478 91.88124589 -17.81731924 91.78461345 -14.75 91.6875 C-13.68652344 91.66494141 -12.62304688 91.64238281 -11.52734375 91.61914062 C-10.50253906 91.58369141 -9.47773438 91.54824219 -8.421875 91.51171875 C-7.47924805 91.48553467 -6.53662109 91.45935059 -5.56542969 91.43237305 C-2.60573251 90.93355084 -1.31555789 89.8388074 1 88 C1.99 88 2.98 88 4 88 C5.76741288 83.42417022 6.2568399 79.60667315 6.2746582 74.71289062 C6.27976913 74.00964157 6.28488007 73.30639252 6.29014587 72.58183289 C6.30396756 70.27321703 6.30309106 67.96490213 6.30078125 65.65625 C6.30467167 64.04252004 6.30900706 62.4287911 6.31376648 60.81506348 C6.32121227 57.43933791 6.32094892 54.06371697 6.31567383 50.68798828 C6.30987497 46.37048229 6.32682798 42.05340471 6.3500185 37.73596954 C6.36477546 34.40559401 6.36562499 31.07532126 6.36250877 27.74491882 C6.36302079 26.15336762 6.36823602 24.56181048 6.37832069 22.97029114 C6.39070917 20.74228312 6.38388029 18.5151049 6.37231445 16.28710938 C6.37294388 15.02169312 6.3735733 13.75627686 6.3742218 12.45251465 C5.81931052 7.33298573 3.92953745 3.36817496 0 0 Z " fill="#289152" transform="translate(235,241)"/>
<path d="M0 0 C0.33 0 0.66 0 1 0 C1 6.6 1 13.2 1 20 C-2.9290625 20.0309375 -2.9290625 20.0309375 -6.9375 20.0625 C-7.7637085 20.071604 -8.58991699 20.08070801 -9.44116211 20.09008789 C-11.29433759 20.09723945 -13.14749308 20.0502852 -15 20 C-17.31812384 17.68187616 -16.46077728 12.04435954 -16.62109375 8.90625 C-16.74613281 7.9471875 -16.87117188 6.988125 -17 6 C-19.24512262 4.87743869 -20.51456649 4.86586238 -23 4.875 C-23.70125 4.87242187 -24.4025 4.86984375 -25.125 4.8671875 C-27.09153775 4.88622764 -27.09153775 4.88622764 -29 6 C-29.02312821 13.67536627 -29.04091753 21.35072896 -29.05181217 29.02612209 C-29.05703995 32.58977422 -29.06413569 36.15340257 -29.07543945 39.71704102 C-29.08834176 43.81006097 -29.09322906 47.9030558 -29.09765625 51.99609375 C-29.10281754 53.28148544 -29.10797882 54.56687714 -29.11329651 55.89122009 C-29.11340981 57.66294334 -29.11340981 57.66294334 -29.11352539 59.47045898 C-29.115746 60.51636703 -29.11796661 61.56227509 -29.12025452 62.63987732 C-29.26650985 64.95689295 -29.26650985 64.95689295 -28 66 C-26.31816052 66.23287008 -24.6287584 66.41264166 -22.9375 66.5625 C-21.55884766 66.68818359 -21.55884766 66.68818359 -20.15234375 66.81640625 C-19.44207031 66.87699219 -18.73179687 66.93757813 -18 67 C-18 67.33 -18 67.66 -18 68 C-19.74965358 68.05429959 -21.49979787 68.09292823 -23.25 68.125 C-24.22453125 68.14820313 -25.1990625 68.17140625 -26.203125 68.1953125 C-29.060778 67.99575573 -30.52494311 67.33949708 -33 66 C-32.89722496 65.1359404 -32.89722496 65.1359404 -32.79237366 64.25442505 C-32.02532032 57.30762246 -31.78898014 50.41465552 -31.68359375 43.4296875 C-31.66281265 42.26744659 -31.64203156 41.10520569 -31.62062073 39.90774536 C-31.5557403 36.23021811 -31.49652897 32.55262536 -31.4375 28.875 C-31.39425616 26.36718099 -31.35064009 23.85936837 -31.30664062 21.3515625 C-31.20012284 15.23444229 -31.09824743 9.11725834 -31 3 C-29.0880169 2.58212948 -27.1700737 2.19146191 -25.25 1.8125 C-24.18265625 1.59207031 -23.1153125 1.37164062 -22.015625 1.14453125 C-19 1 -19 1 -16.6484375 2.22265625 C-14.21769572 4.84347973 -14.38530106 7.5322905 -14 11 C-13.34 11.33 -12.68 11.66 -12 12 C-12 12.66 -12 13.32 -12 14 C-12.66 14 -13.32 14 -14 14 C-13.67 14.66 -13.34 15.32 -13 16 C-10.75189823 16.65417809 -10.75189823 16.65417809 -8.125 17.0625 C-5.2891156 17.56270702 -2.73932151 18.08689283 0 19 C0 12.73 0 6.46 0 0 Z " fill="#2A9455" transform="translate(410,251)"/>
<path d="M0 0 C0.33 0 0.66 0 1 0 C1.33 30.36 1.66 60.72 2 92 C6.29 92 10.58 92 15 92 C16.85468532 90.14531468 16.21866472 87.07985055 16.28125 84.59375 C16.31863281 83.29308594 16.35601562 81.99242187 16.39453125 80.65234375 C16.4302394 79.2682433 16.46538871 77.88412832 16.5 76.5 C16.56746935 73.80185649 16.64120873 71.10415131 16.71875 68.40625 C16.74904297 67.20291016 16.77933594 65.99957031 16.81054688 64.75976562 C17 62 17 62 18 61 C19.45111286 60.84333942 20.90912206 60.74929189 22.3671875 60.68359375 C23.25277344 60.64169922 24.13835937 60.59980469 25.05078125 60.55664062 C25.98277344 60.51732422 26.91476563 60.47800781 27.875 60.4375 C28.79925781 60.39431641 29.72351563 60.35113281 30.67578125 60.30664062 C34.121097 60.14912619 37.55066891 60 41 60 C37.74265359 63.25734641 34.52089459 62.98724548 30.01171875 63.09765625 C28.57027989 63.09107434 27.12885662 63.07924498 25.6875 63.0625 C24.94693359 63.05798828 24.20636719 63.05347656 23.44335938 63.04882812 C21.62887101 63.03712175 19.81442466 63.01918898 18 63 C18.00785522 64.35532837 18.00785522 64.35532837 18.01586914 65.73803711 C18.03287686 69.07951489 18.04543333 72.42094692 18.05493164 75.76245117 C18.05997101 77.21070073 18.06680253 78.65894517 18.07543945 80.10717773 C18.08752247 82.18474588 18.09323211 84.26224697 18.09765625 86.33984375 C18.10551147 88.21724243 18.10551147 88.21724243 18.11352539 90.13256836 C18 93 18 93 17 94 C14.3226862 94.09981214 11.67695825 94.13879875 9 94.125 C7.87464844 94.13080078 7.87464844 94.13080078 6.7265625 94.13671875 C1.12661053 94.12661053 1.12661053 94.12661053 0 93 C-0.09523905 90.10856849 -0.12553027 87.24107936 -0.11352539 84.34936523 C-0.11367142 83.44213715 -0.11381744 82.53490906 -0.1139679 81.60018921 C-0.11326841 78.58630015 -0.10547434 75.57247207 -0.09765625 72.55859375 C-0.0957922 70.47494033 -0.09436824 68.39128646 -0.09336853 66.30763245 C-0.08954234 60.81176554 -0.0797112 55.31592487 -0.06866455 49.82006836 C-0.0584526 44.21663773 -0.05387137 38.61320287 -0.04882812 33.00976562 C-0.03808902 22.00649886 -0.02101139 11.00325161 0 0 Z " fill="#288D52" transform="translate(174,74)"/>
<path d="M0 0 C0.33 0 0.66 0 1 0 C1 29.04 1 58.08 1 88 C7.435 87.505 7.435 87.505 14 87 C14.92578129 81.55916388 15.10508574 76.36672866 15.02734375 70.85546875 C15.01471277 69.11002791 15.00235072 67.36458511 14.99023438 65.61914062 C14.9653006 62.88901545 14.93715436 60.15899391 14.90405273 57.42895508 C14.87397973 54.77945265 14.85613061 52.13008655 14.83984375 49.48046875 C14.82638412 48.65967331 14.8129245 47.83887787 14.79905701 46.99320984 C14.79014802 44.99437051 14.88597676 42.99560435 15 41 C15.66 40.34 16.32 39.68 17 39 C17 55.5 17 72 17 89 C11.39 89 5.78 89 0 89 C0 59.63 0 30.26 0 0 Z " fill="#459560" transform="translate(77,245)"/>
<path d="M0 0 C1.48831242 0.00667405 2.97660807 0.01863442 4.46484375 0.03515625 C5.22345703 0.03966797 5.98207031 0.04417969 6.76367188 0.04882812 C8.64326246 0.06064945 10.52281274 0.07858547 12.40234375 0.09765625 C12.49031656 3.28497879 12.54305716 6.47198413 12.58984375 9.66015625 C12.61498047 10.55541016 12.64011719 11.45066406 12.66601562 12.37304688 C12.72887825 18.09354602 12.17500872 22.05823911 9.40234375 27.09765625 C4.811776 31.3523288 2.25804954 32.2231324 -3.91796875 32.1953125 C-5.17480469 32.19208984 -6.43164062 32.18886719 -7.7265625 32.18554688 C-9.04527344 32.17716797 -10.36398437 32.16878906 -11.72265625 32.16015625 C-13.06249836 32.15514114 -14.40234225 32.15057826 -15.7421875 32.14648438 C-19.02738831 32.13466711 -22.31250022 32.11819242 -25.59765625 32.09765625 C-25.59765625 31.76765625 -25.59765625 31.43765625 -25.59765625 31.09765625 C-24.41006714 31.06792725 -24.41006714 31.06792725 -23.19848633 31.03759766 C-19.60204865 30.94218465 -16.00617874 30.83257034 -12.41015625 30.72265625 C-11.16427734 30.69171875 -9.91839844 30.66078125 -8.63476562 30.62890625 C-6.83168945 30.57089844 -6.83168945 30.57089844 -4.9921875 30.51171875 C-3.33473511 30.4645874 -3.33473511 30.4645874 -1.64379883 30.41650391 C1.42376864 30.09541365 3.66516336 29.5061656 6.40234375 28.09765625 C7.28927678 26.05659986 7.28927678 26.05659986 7.40234375 24.09765625 C8.06234375 24.09765625 8.72234375 24.09765625 9.40234375 24.09765625 C9.73234375 16.50765625 10.06234375 8.91765625 10.40234375 1.09765625 C3.96734375 1.59265625 3.96734375 1.59265625 -2.59765625 2.09765625 C-2.92765625 6.38765625 -3.25765625 10.67765625 -3.59765625 15.09765625 C-4.58765625 15.09765625 -5.57765625 15.09765625 -6.59765625 15.09765625 C-6.26765625 14.76765625 -5.93765625 14.43765625 -5.59765625 14.09765625 C-5.38833728 11.93469352 -5.22968556 9.76670915 -5.09765625 7.59765625 C-4.64286147 0.12602773 -4.64286147 0.12602773 0 0 Z " fill="#2D9558" transform="translate(398.59765625,301.90234375)"/>
<path d="M0 0 C0.33 0 0.66 0 1 0 C1.02685412 2.31243792 1.04632841 4.6249627 1.0625 6.9375 C1.07410156 8.22527344 1.08570313 9.51304687 1.09765625 10.83984375 C1 14 1 14 0 15 C-2.21855264 15.08783542 -4.43988496 15.10694609 -6.66015625 15.09765625 C-7.65685585 15.09553383 -7.65685585 15.09553383 -8.6736908 15.09336853 C-10.80333899 15.08775518 -12.93288339 15.07520054 -15.0625 15.0625 C-16.50325369 15.05748671 -17.94400903 15.05292351 -19.38476562 15.04882812 C-22.92324958 15.03863076 -26.46150813 15.0190583 -30 15 C-30 22.59 -30 30.18 -30 38 C-29.01 38.33 -28.02 38.66 -27 39 C-27.99 39.495 -27.99 39.495 -29 40 C-29.66 39.67 -30.32 39.34 -31 39 C-31.7566506 35.61720393 -31.9399501 32.13680517 -32.25 28.6875 C-32.353125 27.72392578 -32.45625 26.76035156 -32.5625 25.76757812 C-32.69398438 24.37249023 -32.69398438 24.37249023 -32.828125 22.94921875 C-32.9096582 22.09674561 -32.99119141 21.24427246 -33.07519531 20.3659668 C-33 18 -33 18 -31 14 C-21.595 13.505 -21.595 13.505 -12 13 C-11.67 12.01 -11.34 11.02 -11 10 C-9.68 10 -8.36 10 -7 10 C-6.67 10.66 -6.34 11.32 -6 12 C-4.35 12 -2.7 12 -1 12 C-0.67 8.04 -0.34 4.08 0 0 Z " fill="#2D9958" transform="translate(187,240)"/>
<path d="M0 0 C0.99 0 1.98 0 3 0 C-2.04411817 11.64636708 -16.14688758 19.69894998 -26 27 C-27.33392764 27.9992071 -28.66741904 28.99899762 -30 30 C-30.66 29.67 -31.32 29.34 -32 29 C-31.236875 28.278125 -30.47375 27.55625 -29.6875 26.8125 C-26.95202423 24.22625704 -26.95202423 24.22625704 -25.6875 21.375 C-23.1972065 17.87014249 -20.00539605 17.1951585 -16 16 C-15.01 15.67 -14.02 15.34 -13 15 C-13 14.34 -13 13.68 -13 13 C-11.576875 12.071875 -11.576875 12.071875 -10.125 11.125 C-7.08638638 9.05874274 -6.30216984 8.25542461 -5 5 C-4.34 4.34 -3.68 3.68 -3 3 C-2.01 3 -1.02 3 0 3 C0 2.01 0 1.02 0 0 Z " fill="#249753" transform="translate(423,426)"/>
<path d="M0 0 C0.66 0 1.32 0 2 0 C2 0.66 2 1.32 2 2 C2.99 2 3.98 2 5 2 C5.04898437 2.69867188 5.09796875 3.39734375 5.1484375 4.1171875 C5.22320313 5.02726562 5.29796875 5.93734375 5.375 6.875 C5.44460937 7.77992188 5.51421875 8.68484375 5.5859375 9.6171875 C5.79568132 12.17941903 5.79568132 12.17941903 8 14 C8.7109375 15.8125 8.7109375 15.8125 9.375 18 C10.50256299 21.51366851 11.68821181 24.98779747 13 28.4375 C13.309375 29.26121094 13.61875 30.08492188 13.9375 30.93359375 C14.9525662 33.31960554 14.9525662 33.31960554 18 35 C17.67 36.32 17.34 37.64 17 39 C18.98 38.505 18.98 38.505 21 38 C21.33 38.99 21.66 39.98 22 41 C21.34 41 20.68 41 20 41 C20.66 43.64 21.32 46.28 22 49 C17.9441864 45.34499622 16.12056049 40.54854179 13.8125 35.6875 C13.32998779 34.67671387 12.84747559 33.66592773 12.3503418 32.62451172 C0 6.2397835 0 6.2397835 0 0 Z " fill="#299757" transform="translate(10,323)"/>
<path d="M0 0 C14.19 0 28.38 0 43 0 C43 0.66 43 1.32 43 2 C43.72703125 1.97679688 44.4540625 1.95359375 45.203125 1.9296875 C64.18222438 1.589037 64.18222438 1.589037 68.83984375 5.57421875 C69.22269531 6.04472656 69.60554688 6.51523437 70 7 C63.2030154 6.18467543 56.44726844 5.17171992 49.68554688 4.10546875 C38.08811785 2.32401728 26.52480293 1.7690441 14.8125 1.4375 C13.36913147 1.39418434 11.92577197 1.35056654 10.48242188 1.30664062 C6.98837827 1.20095142 3.49423102 1.09932418 0 1 C0 0.67 0 0.34 0 0 Z " fill="#2D9857" transform="translate(234,15)"/>
<path d="M0 0 C1.95766281 -0.08082094 3.91626728 -0.13910778 5.875 -0.1875 C7.51082031 -0.23970703 7.51082031 -0.23970703 9.1796875 -0.29296875 C10.11039063 -0.19628906 11.04109375 -0.09960938 12 0 C14.32441815 3.48662723 14.24401741 4.82577923 14.22705078 8.94018555 C14.22689972 10.16122482 14.22674866 11.3822641 14.22659302 12.64030457 C14.21627045 13.95912125 14.20594788 15.27793793 14.1953125 16.63671875 C14.19158161 18.00006401 14.188735 19.36341196 14.18673706 20.72676086 C14.17910653 24.31234154 14.15946315 27.89775979 14.1373291 31.48327637 C14.11685811 35.14312544 14.10773267 38.80300079 14.09765625 42.46289062 C14.0762166 49.64200107 14.04208779 56.82097776 14 64 C13.67 64 13.34 64 13 64 C12.98969254 63.25053604 12.97938507 62.50107208 12.96876526 61.72889709 C12.87095475 54.68009546 12.76846424 47.63138126 12.66066074 40.58272648 C12.60539903 36.9585842 12.551974 33.3344339 12.50268555 29.71020508 C12.45508968 26.21532901 12.4027489 22.7205538 12.34705925 19.22579765 C12.31663587 17.23766177 12.29118018 15.24945191 12.26576233 13.26124573 C12.24581711 12.06007614 12.22587189 10.85890656 12.20532227 9.62133789 C12.18977798 8.55766495 12.1742337 7.493992 12.15821838 6.39808655 C12.26771448 4.04804072 12.26771448 4.04804072 11 3 C9.189715 2.90120435 7.37547273 2.87028486 5.5625 2.875 C4.57378906 2.87242187 3.58507812 2.86984375 2.56640625 2.8671875 C0.01090924 2.82771585 0.01090924 2.82771585 -2 4 C-1.34 2.68 -0.68 1.36 0 0 Z " fill="#358956" transform="translate(214,253)"/>
<path d="M0 0 C0.66 0 1.32 0 2 0 C2 14.85 2 29.7 2 45 C1.01 45 0.02 45 -1 45 C-0.67 30.15 -0.34 15.3 0 0 Z " fill="#248A4D" transform="translate(111,244)"/>
<path d="M0 0 C0.33 0 0.66 0 1 0 C0.96519531 1.01320313 0.96519531 1.01320313 0.9296875 2.046875 C0.91164062 2.93890625 0.89359375 3.8309375 0.875 4.75 C0.84019531 6.07257813 0.84019531 6.07257813 0.8046875 7.421875 C1.01079291 10.14246638 1.71621563 11.63302256 3 14 C3.125 16.75 3.125 16.75 3 19 C1.68 19.33 0.36 19.66 -1 20 C-1.13277344 20.56203125 -1.26554688 21.1240625 -1.40234375 21.703125 C-2.02437111 24.09366153 -2.77115041 26.41035775 -3.5625 28.75 C-3.83191406 29.54921875 -4.10132813 30.3484375 -4.37890625 31.171875 C-4.58386719 31.77515625 -4.78882813 32.3784375 -5 33 C-5.33 33 -5.66 33 -6 33 C-5.44890325 25.45614428 -4.11104653 18.2442301 -2.4375 10.875 C-2.20353516 9.823125 -1.96957031 8.77125 -1.72851562 7.6875 C-1.15750875 5.12379565 -0.58126181 2.56139504 0 0 Z " fill="#1F9C50" transform="translate(236,121)"/>
<path d="M0 0 C0.33 0 0.66 0 1 0 C0.67 4.29 0.34 8.58 0 13 C-0.66 13 -1.32 13 -2 13 C-1.79375 13.94875 -1.5875 14.8975 -1.375 15.875 C-1.25125 16.90625 -1.1275 17.9375 -1 19 C-1.66 19.66 -2.32 20.32 -3 21 C-3 21.928125 -3 22.85625 -3 23.8125 C-3 27.19469955 -3.7557536 28.9031073 -5 32 C-5.37753325 33.82474405 -5.71044303 35.659245 -6 37.5 C-6.59229501 41.26530402 -7.47833148 44.5001624 -9 48 C-9.33 48 -9.66 48 -10 48 C-9.40394893 41.92170903 -8.50084012 36.05882546 -7.1875 30.09765625 C-7.01371826 29.29388046 -6.83993652 28.49010468 -6.66088867 27.66197205 C-6.29659774 25.98177826 -5.9301205 24.3020571 -5.56152344 22.62280273 C-4.9963682 20.04594055 -4.43909416 17.46746265 -3.8828125 14.88867188 C-3.52650081 13.2499001 -3.16974609 11.61122458 -2.8125 9.97265625 C-2.64580811 9.20188248 -2.47911621 8.4311087 -2.30737305 7.63697815 C-1.11575471 2.23150942 -1.11575471 2.23150942 0 0 Z " fill="#289658" transform="translate(247,73)"/>
<path d="M0 0 C3.94175946 3.94175946 3.17463303 9.17011736 3.203125 14.45703125 C3.20882507 15.27821945 3.21452515 16.09940765 3.22039795 16.94548035 C3.22982987 18.68116983 3.23637474 20.41687707 3.24023438 22.15258789 C3.24992768 24.79280243 3.28096252 27.43223401 3.3125 30.07226562 C3.31903206 31.76301624 3.32428173 33.45377239 3.328125 35.14453125 C3.3404718 35.92705765 3.3528186 36.70958405 3.36553955 37.51582336 C3.34169504 43.45370547 2.26567742 48.19056 -1.5625 52.9375 C-3 54 -3 54 -5 54 C-5 53.01 -5 52.02 -5 51 C-3.515 50.505 -3.515 50.505 -2 50 C1.81401317 43.69974927 1.38183014 37.37636235 1.25 30.1875 C1.24226562 28.47143555 1.24226562 28.47143555 1.234375 26.72070312 C1.43911554 21.18743578 1.43911554 21.18743578 0 16 C-0.07139635 13.85525356 -0.08403003 11.70832646 -0.0625 9.5625 C-0.05347656 8.40878906 -0.04445312 7.25507812 -0.03515625 6.06640625 C-0.02355469 5.05449219 -0.01195312 4.04257813 0 3 C0 2.01 0 1.02 0 0 Z " fill="#2B9657" transform="translate(220,80)"/>
<path d="M0 0 C0.33 0 0.66 0 1 0 C1.29433248 6.84323019 0.1992146 13.01156682 -1.25 19.6875 C-1.47453857 20.74517578 -1.69907715 21.80285156 -1.93041992 22.89257812 C-3.56141053 30.40585828 -5.46055193 37.73632732 -8 45 C-9.26622284 41.41236863 -8.68979547 39.16229019 -7.625 35.5625 C-5.86930005 29.06079835 -5.31384129 22.70971033 -5 16 C-4.34 16 -3.68 16 -3 16 C-2.855625 14.700625 -2.71125 13.40125 -2.5625 12.0625 C-2.125 8.125 -2.125 8.125 -1 7 C-0.63239269 4.67182036 -0.29758419 2.3381615 0 0 Z " fill="#269654" transform="translate(497,281)"/>
<path d="M0 0 C1.25115601 0.1071936 1.25115601 0.1071936 2.52758789 0.21655273 C13.83895796 1.087009 25.09770534 1.11511395 36.4375 1.0625 C38.34439985 1.05747031 40.25130101 1.05291003 42.15820312 1.04882812 C46.77216822 1.03794957 51.38606925 1.02076764 56 1 C52.68629 3.20914 51.6553979 3.22481553 47.8125 3.125 C46.91144531 3.10695313 46.01039063 3.08890625 45.08203125 3.0703125 C44.39496094 3.04710937 43.70789063 3.02390625 43 3 C42.67 3.66 42.34 4.32 42 5 C42 4.34 42 3.68 42 3 C41.01 3.33 40.02 3.66 39 4 C34.8189471 4.22824606 30.63751805 4.22833151 26.45068359 4.24023438 C24.40289568 4.24986876 22.35614319 4.28086998 20.30859375 4.3125 C12.85594214 4.3418123 6.89485234 3.89188067 0 1 C0 0.67 0 0.34 0 0 Z " fill="#269955" transform="translate(219,482)"/>
<path d="M0 0 C1.41623216 -0.05447047 2.83308191 -0.09300508 4.25 -0.125 C5.03890625 -0.14820313 5.8278125 -0.17140625 6.640625 -0.1953125 C9 0 9 0 13 2 C13 15.2 13 28.4 13 42 C12.34 42 11.68 42 11 42 C11 29.13 11 16.26 11 3 C7.04 3 3.08 3 -1 3 C-0.67 2.01 -0.34 1.02 0 0 Z " fill="#38985E" transform="translate(442,292)"/>
<path d="M0 0 C0 0.66 0 1.32 0 2 C-0.99 2 -1.98 2 -3 2 C-3 2.66 -3 3.32 -3 4 C-3.65226562 4.24234375 -4.30453125 4.4846875 -4.9765625 4.734375 C-10.95450431 7.00904587 -10.95450431 7.00904587 -16.4375 10.25 C-19 12 -19 12 -22 12 C-22 12.66 -22 13.32 -22 14 C-22.66 14 -23.32 14 -24 14 C-24 14.66 -24 15.32 -24 16 C-24.66 16 -25.32 16 -26 16 C-26.33 16.66 -26.66 17.32 -27 18 C-29.06640625 18.8515625 -29.06640625 18.8515625 -31.5625 19.625 C-32.80193359 20.01558594 -32.80193359 20.01558594 -34.06640625 20.4140625 C-34.70449219 20.60742188 -35.34257813 20.80078125 -36 21 C-32.09282648 16.71051988 -27.96156851 13.92554005 -22.9375 11.0625 C-22.19105225 10.6308252 -21.44460449 10.19915039 -20.67553711 9.75439453 C-3.65734822 0 -3.65734822 0 0 0 Z " fill="#289054" transform="translate(145,23)"/>
<path d="M0 0 C0.33 0 0.66 0 1 0 C1 16.5 1 33 1 50 C-3.95 50 -8.9 50 -14 50 C-14 49.67 -14 49.34 -14 49 C-8.06 48.505 -8.06 48.505 -2 48 C-1.07920625 42.56450734 -0.88113882 37.36145647 -0.9375 31.85546875 C-0.94128662 31.00447098 -0.94507324 30.15347321 -0.94897461 29.27668762 C-0.96111262 26.58023825 -0.97975712 23.88389994 -1 21.1875 C-1.02653302 17.61849273 -1.04652921 14.04953708 -1.0625 10.48046875 C-1.07079834 9.65967331 -1.07909668 8.83887787 -1.08764648 7.99320984 C-1.1127787 2.2255574 -1.1127787 2.2255574 0 0 Z " fill="#2C9957" transform="translate(93,284)"/>
<path d="M0 0 C0.66 0 1.32 0 2 0 C0.55254249 3.37490093 -1.26003854 5.38636493 -3.9375 7.875 C-9.95526611 13.72615044 -14.92853773 20.33600379 -20 27 C-20.66 26.67 -21.32 26.34 -22 26 C-21.505 24.515 -21.505 24.515 -21 23 C-20.34 23 -19.68 23 -19 23 C-19 22.34 -19 21.68 -19 21 C-18.505 20.525625 -18.01 20.05125 -17.5 19.5625 C-15.65373409 18.00030058 -15.65373409 18.00030058 -16 15 C-14.68 15 -13.36 15 -12 15 C-11.34 13.35 -10.68 11.7 -10 10 C-9.34 10 -8.68 10 -8 10 C-8.33 9.01 -8.66 8.02 -9 7 C-8.401875 6.9175 -7.80375 6.835 -7.1875 6.75 C-4.400657 5.79451097 -3.67123014 4.3549152 -2 2 C-1.34 2 -0.68 2 0 2 C0 1.34 0 0.68 0 0 Z " fill="#259754" transform="translate(82,84)"/>
<path d="M0 0 C0.50225098 0.24121582 1.00450195 0.48243164 1.52197266 0.73095703 C14.48986078 6.94738482 27.45445027 13.1236021 41 18 C35.09045354 20.33195338 28.49060189 16.32711383 23 14 C19.8313534 12.47919482 16.71588132 10.89980853 13.62109375 9.234375 C11.04949987 8.02331141 8.79932625 7.42521411 6 7 C6 6.01 6 5.02 6 4 C4.02 3.34 2.04 2.68 0 2 C0 1.34 0 0.68 0 0 Z " fill="#289456" transform="translate(133,453)"/>
<path d="M0 0 C0 3.8148669 -1.06277405 5.72675616 -3 9 C-5.6875 11.375 -5.6875 11.375 -8 13 C-7.01 13.66 -6.02 14.32 -5 15 C-6.1875 16.5625 -6.1875 16.5625 -8 18 C-9.67293936 17.69972883 -11.33985384 17.36442233 -13 17 C-15.13776211 17.91498561 -15.13776211 17.91498561 -17 19 C-16.38511719 18.29423828 -16.38511719 18.29423828 -15.7578125 17.57421875 C-15.21898437 16.95160156 -14.68015625 16.32898438 -14.125 15.6875 C-13.59132812 15.07261719 -13.05765625 14.45773438 -12.5078125 13.82421875 C-10.8359553 11.86501788 -10.8359553 11.86501788 -9 9 C-8.34 9 -7.68 9 -7 9 C-6.773125 8.443125 -6.54625 7.88625 -6.3125 7.3125 C-4.64103234 4.36753316 -2.44723648 2.31843456 0 0 Z " fill="#209A50" transform="translate(77,68)"/>
<path d="M0 0 C0.66 0 1.32 0 2 0 C2 1.65 2 3.3 2 5 C2.66 5 3.32 5 4 5 C4 6.32 4 7.64 4 9 C4.99 8.67 5.98 8.34 7 8 C8.64006048 14.66957927 9.51358785 21.15182898 10 28 C7.67730104 25.67730104 7.12873616 23.96859511 6.0546875 20.87890625 C5.70019531 19.86119141 5.34570312 18.84347656 4.98046875 17.79492188 C4.61566406 16.72822266 4.25085938 15.66152344 3.875 14.5625 C3.50246094 13.49966797 3.12992187 12.43683594 2.74609375 11.34179688 C0 3.39019574 0 3.39019574 0 0 Z " fill="#279655" transform="translate(95,284)"/>
<path d="M0 0 C0.598125 0.20625 1.19625 0.4125 1.8125 0.625 C1.8125 1.945 1.8125 3.265 1.8125 4.625 C1.1525 4.625 0.4925 4.625 -0.1875 4.625 C-0.1875 5.615 -0.1875 6.605 -0.1875 7.625 C0.4725 7.955 1.1325 8.285 1.8125 8.625 C1.8125 9.615 1.8125 10.605 1.8125 11.625 C2.8025 11.955 3.7925 12.285 4.8125 12.625 C5.1425 14.275 5.4725 15.925 5.8125 17.625 C6.4725 17.625 7.1325 17.625 7.8125 17.625 C7.4825 18.945 7.1525 20.265 6.8125 21.625 C5.18169073 19.23294581 3.55777814 16.83667218 1.9375 14.4375 C1.47730469 13.76396484 1.01710938 13.09042969 0.54296875 12.39648438 C-1.80759818 8.90470017 -3.82894035 5.64602425 -5.1875 1.625 C-2.1875 -0.375 -2.1875 -0.375 0 0 Z " fill="#219C50" transform="translate(37.1875,371.375)"/>
<path d="M0 0 C2.09749995 2.35968744 2.96905704 3.54616994 3.1875 6.75 C3.125625 7.4925 3.06375 8.235 3 9 C2.34 9 1.68 9 1 9 C0.67 8.34 0.34 7.68 0 7 C-1.32 14.26 -2.64 21.52 -4 29 C-5.95278062 25.09443876 -6.25102058 24.46501229 -5.6875 20.5 C-5.58824219 19.7471875 -5.48898438 18.994375 -5.38671875 18.21875 C-4.36673774 12.36673774 -4.36673774 12.36673774 -3 11 C-2.7180604 8.71315662 -2.55222995 6.42636727 -2.37890625 4.12890625 C-2 2 -2 2 0 0 Z " fill="#229852" transform="translate(257,94)"/>
<path d="M0 0 C1 3 1 3 0.07543945 5.38842773 C-0.40707275 6.31083252 -0.88958496 7.2332373 -1.38671875 8.18359375 C-1.91330078 9.19357422 -2.43988281 10.20355469 -2.98242188 11.24414062 C-3.54509766 12.29794922 -4.10777344 13.35175781 -4.6875 14.4375 C-5.23083984 15.48744141 -5.77417969 16.53738281 -6.33398438 17.61914062 C-8.84203879 22.37746878 -11.01104687 26.32323049 -15 30 C-15 27 -15 27 -14 25 C-13.34 25 -12.68 25 -12 25 C-12 23.68 -12 22.36 -12 21 C-11.34 21 -10.68 21 -10 21 C-10.12375 19.9171875 -10.12375 19.9171875 -10.25 18.8125 C-9.92250873 15.12822325 -8.50171432 13.64887398 -6 11 C-5.34 10.67 -4.68 10.34 -4 10 C-4 8.68 -4 7.36 -4 6 C-3.34 6 -2.68 6 -2 6 C-1.34 4.02 -0.68 2.04 0 0 Z " fill="#289456" transform="translate(477,352)"/>
<path d="M0 0 C1 2 1 2 0.4375 3.875 C-1.52964589 6.78295479 -4.05362403 8.13596622 -7 10 C-7.556875 10.5775 -8.11375 11.155 -8.6875 11.75 C-10 13 -10 13 -13 13 C-15.01151741 13.63106429 -17.01363702 14.29373761 -19 15 C-15.63045548 11.35885492 -11.85905037 8.63307401 -7.8125 5.8125 C-3.72735949 3.11900982 -3.72735949 3.11900982 0 0 Z " fill="#239553" transform="translate(396,432)"/>
<path d="M0 0 C3.43649026 4.08083218 6.22069673 8.40218239 9 12.9375 C11.92333804 17.68128037 14.87888663 22.38335315 18 27 C16.68 27 15.36 27 14 27 C13.73445313 26.43410156 13.46890625 25.86820312 13.1953125 25.28515625 C12.66550781 24.18494141 12.66550781 24.18494141 12.125 23.0625 C11.77695312 22.33160156 11.42890625 21.60070312 11.0703125 20.84765625 C10.1315023 18.83667541 10.1315023 18.83667541 8 18 C7.71125 17.2575 7.4225 16.515 7.125 15.75 C6.1060295 12.86766676 6.1060295 12.86766676 3.875 10.4375 C2 8 2 8 2 4 C1.01 3.67 0.02 3.34 -1 3 C-0.67 2.01 -0.34 1.02 0 0 Z " fill="#239855" transform="translate(45,364)"/>
<path d="M0 0 C0 4.13781054 -1.71509607 5.20919996 -4.5 8.1875 C-5.3353125 9.08855469 -6.170625 9.98960937 -7.03125 10.91796875 C-7.6809375 11.60503906 -8.330625 12.29210937 -9 13 C-8.67 13.66 -8.34 14.32 -8 15 C-14.14285714 20.57142857 -14.14285714 20.57142857 -19 21 C-15.41450213 16.71489278 -11.73052956 12.69078739 -7.74609375 8.77734375 C-5.00167051 5.98380331 -2.5123833 3.00260443 0 0 Z " fill="#2B9053" transform="translate(431,398)"/>
<path d="M0 0 C1.88428711 0.02707031 1.88428711 0.02707031 3.80664062 0.0546875 C6.89271916 0.10162406 9.97720781 0.16727586 13.0625 0.25 C13.0625 0.58 13.0625 0.91 13.0625 1.25 C12.29583008 1.27505615 11.52916016 1.3001123 10.73925781 1.32592773 C7.26350717 1.44201423 3.78801908 1.56468366 0.3125 1.6875 C-0.8940625 1.72681641 -2.100625 1.76613281 -3.34375 1.80664062 C-4.50390625 1.84853516 -5.6640625 1.89042969 -6.859375 1.93359375 C-7.92768555 1.97025146 -8.99599609 2.00690918 -10.09667969 2.04467773 C-12.52061152 2.21986909 -14.61636712 2.56198487 -16.9375 3.25 C-16.6075 5.23 -16.2775 7.21 -15.9375 9.25 C-18.9075 8.755 -18.9075 8.755 -21.9375 8.25 C-21.875 6.5 -21.875 6.5 -20.9375 4.25 C-14.46436832 -0.86829016 -7.96946048 -0.21731093 0 0 Z " fill="#299A57" transform="translate(386.9375,238.75)"/>
<path d="M0 0 C0.33 0.66 0.66 1.32 1 2 C-1.48387097 8.74193548 -1.48387097 8.74193548 -4 10 C-5.12224855 11.88013106 -5.12224855 11.88013106 -6.125 14.0625 C-6.65480469 15.16271484 -6.65480469 15.16271484 -7.1953125 16.28515625 C-7.59363281 17.13400391 -7.59363281 17.13400391 -8 18 C-8.66 18 -9.32 18 -10 18 C-10.268125 18.928125 -10.53625 19.85625 -10.8125 20.8125 C-11.91148371 23.76240366 -12.62418561 25.05615186 -15 27 C-13.47937949 21.58762192 -10.93583016 17.15144495 -8.0625 12.375 C-7.61970703 11.62476562 -7.17691406 10.87453125 -6.72070312 10.1015625 C-4.63673914 6.59826686 -2.55496132 3.18737749 0 0 Z " fill="#299155" transform="translate(42,110)"/>
<path d="M0 0 C2.92810021 0.47666748 5.84328453 0.96794456 8.75 1.5625 C10.94518178 2.06362322 10.94518178 2.06362322 13 2 C12.34 3.65 11.68 5.3 11 7 C11.99 6.67 12.98 6.34 14 6 C14.66 7.65 15.32 9.3 16 11 C11.87321179 9.55901911 8.69813572 7.52700506 5.1875 4.9375 C4.21167969 4.22464844 3.23585938 3.51179688 2.23046875 2.77734375 C1.49441406 2.19082031 0.75835937 1.60429687 0 1 C0 0.67 0 0.34 0 0 Z " fill="#229B51" transform="translate(97,448)"/>
<path d="M0 0 C0.33 1.32 0.66 2.64 1 4 C0.01 4.66 -0.98 5.32 -2 6 C-2.7115625 7.670625 -2.7115625 7.670625 -3.4375 9.375 C-5.57076318 14.32417057 -8.06470002 16.88487144 -13 19 C-11.68779266 16.22561876 -10.22517631 13.79209828 -8.3984375 11.328125 C-7.90859375 10.66425781 -7.41875 10.00039063 -6.9140625 9.31640625 C-6.40617187 8.63449219 -5.89828125 7.95257813 -5.375 7.25 C-4.859375 6.55261719 -4.34375 5.85523438 -3.8125 5.13671875 C-2.54440881 3.42244733 -1.2725711 1.71094844 0 0 Z " fill="#1E9352" transform="translate(445,379)"/>
<path d="M0 0 C0 0.33 0 0.66 0 1 C-6.21170074 1.92159579 -12.22609106 2.12177385 -18.5 2.0625 C-19.4178125 2.05798828 -20.335625 2.05347656 -21.28125 2.04882812 C-23.52090391 2.03716326 -25.76041545 2.02079614 -28 2 C-28 1.67 -28 1.34 -28 1 C-18.43111514 -1.03748119 -9.65616436 -1.67933293 0 0 Z " fill="#1AB340" transform="translate(212,73)"/>
<path d="M0 0 C4.21654356 1.48635116 7.62478605 3.61249159 11.3125 6.125 C12.38113281 6.84945313 13.44976562 7.57390625 14.55078125 8.3203125 C15.76314453 9.15175781 15.76314453 9.15175781 17 10 C16.01 10.66 15.02 11.32 14 12 C13.67 11.01 13.34 10.02 13 9 C9.88214887 9.64644661 9.88214887 9.64644661 9 12 C8.34 12 7.68 12 7 12 C6.773125 10.906875 6.54625 9.81375 6.3125 8.6875 C4.82086778 4.49672376 3.83584643 3.91792322 0 2 C0 1.34 0 0.68 0 0 Z " fill="#229852" transform="translate(115,442)"/>
<path d="M0 0 C0.33 0 0.66 0 1 0 C1 7.59 1 15.18 1 23 C1.99 23.33 2.98 23.66 4 24 C3.34 24.33 2.68 24.66 2 25 C1.34 24.67 0.68 24.34 0 24 C-0.75537785 20.59579715 -0.93952269 17.09504047 -1.25 13.625 C-1.353125 12.65304687 -1.45625 11.68109375 -1.5625 10.6796875 C-1.65015625 9.74640625 -1.7378125 8.813125 -1.828125 7.8515625 C-1.9096582 6.99385254 -1.99119141 6.13614258 -2.07519531 5.25244141 C-2 3 -2 3 0 0 Z " fill="#249252" transform="translate(156,255)"/>
<path d="M0 0 C7.21253337 3.330042 13.61175354 7.28357123 20 12 C19.01 12.33 18.02 12.66 17 13 C16.34 12.67 15.68 12.34 15 12 C15 11.34 15 10.68 15 10 C14.443125 9.87625 13.88625 9.7525 13.3125 9.625 C6.52747253 7.79120879 6.52747253 7.79120879 4 4 C0.91634129 3.7497843 0.91634129 3.7497843 -2 4 C-1.34 2.68 -0.68 1.36 0 0 Z " fill="#278F51" transform="translate(373,32)"/>
<path d="M0 0 C0.66 0 1.32 0 2 0 C2 1.32 2 2.64 2 4 C1.34 4 0.68 4 0 4 C-0.11472656 4.7321875 -0.22945313 5.464375 -0.34765625 6.21875 C-1.01290519 9.05502093 -1.95793345 11.00624986 -3.4375 13.5 C-5.23021492 16.60357294 -6.79721255 19.61032628 -8 23 C-8.66 23 -9.32 23 -10 23 C-8.41980408 17.7936703 -6.22115005 13.01626689 -3.875 8.125 C-3.50246094 7.34125 -3.12992187 6.5575 -2.74609375 5.75 C-1.83381003 3.83186501 -0.91733016 1.91572671 0 0 Z " fill="#2A9354" transform="translate(466,339)"/>
<path d="M0 0 C1.19882813 0.00966797 2.39765625 0.01933594 3.6328125 0.02929688 C5.4890625 0.06700195 5.4890625 0.06700195 7.3828125 0.10546875 C8.64351562 0.11900391 9.90421875 0.13253906 11.203125 0.14648438 C14.30512704 0.1817344 17.40624784 0.23101371 20.5078125 0.29296875 C20.1778125 0.95296875 19.8478125 1.61296875 19.5078125 2.29296875 C18.79761963 2.26678467 18.08742676 2.24060059 17.35571289 2.21362305 C14.09414371 2.10878784 10.83293024 2.04437005 7.5703125 1.98046875 C6.45333984 1.93857422 5.33636719 1.89667969 4.18554688 1.85351562 C-3.35962397 1.74288262 -8.32414079 2.86869459 -14.4921875 7.29296875 C-13.44502101 4.25618594 -12.5307886 3.31755105 -9.77294922 1.5612793 C-6.24351083 0.19683277 -3.76723264 -0.05381761 0 0 Z " fill="#269E56" transform="translate(212.4921875,238.70703125)"/>
<path d="M0 0 C1.0621875 0.26554687 2.124375 0.53109375 3.21875 0.8046875 C4.24742187 1.06185547 4.24742187 1.06185547 5.296875 1.32421875 C6.02390625 1.50597656 6.7509375 1.68773437 7.5 1.875 C8.19609375 2.04902344 8.8921875 2.22304688 9.609375 2.40234375 C12.51171875 3.12792969 15.4140625 3.85351562 18.31640625 4.57910156 C19.04730469 4.76182617 19.77820313 4.94455078 20.53125 5.1328125 C21.6759375 5.41898437 22.820625 5.70515625 24 6 C24 6.33 24 6.66 24 7 C19.71 7 15.42 7 11 7 C11 6.34 11 5.68 11 5 C9.9275 4.9175 8.855 4.835 7.75 4.75 C3.62858271 3.92571654 2.72017274 3.00904064 0 0 Z " fill="#229855" transform="translate(175,472)"/>
<path d="M0 0 C0.99 0.33 1.98 0.66 3 1 C3 1.66 3 2.32 3 3 C6.60992379 2.34414811 6.60992379 2.34414811 10 1 C10.99 1.33 11.98 1.66 13 2 C13 1.34 13 0.68 13 0 C15.31 0 17.62 0 20 0 C16.41588944 1.91812952 12.6910399 3.29731427 8.875 4.6875 C7.92560547 5.04424805 7.92560547 5.04424805 6.95703125 5.40820312 C5.32521178 5.99891484 3.66362717 6.50591524 2 7 C1.34 6.67 0.68 6.34 0 6 C0 4 0 2 0 0 Z " fill="#269A55" transform="translate(164,25)"/>
<path d="M0 0 C0.33 0.66 0.66 1.32 1 2 C1.66 2 2.32 2 3 2 C4.30316519 6.15383904 5.12789797 9.65146913 5 14 C5.33 14.33 5.66 14.66 6 15 C6.04063832 16.66617115 6.042721 18.33388095 6 20 C3.94272963 16.91409445 2.67681397 14.0065132 1.3125 10.5625 C0.85488281 9.42941406 0.39726562 8.29632813 -0.07421875 7.12890625 C-0.97073681 4.09890216 -1.16241846 2.86729887 0 0 Z " fill="#249955" transform="translate(467,158)"/>
<path d="M0 0 C2.875 -0.125 2.875 -0.125 6 0 C8 2 8 2 8 4 C10.16820894 6.99063302 11.90600444 8.93733629 15 11 C15 11.66 15 12.32 15 13 C14.34 13 13.68 13 13 13 C13 12.34 13 11.68 13 11 C12.43796875 10.75378906 11.8759375 10.50757812 11.296875 10.25390625 C8.59522475 8.77902576 6.53604048 6.99568351 4.25 4.9375 C3.45078125 4.22464844 2.6515625 3.51179688 1.828125 2.77734375 C1.22484375 2.19082031 0.6215625 1.60429688 0 1 C0 0.67 0 0.34 0 0 Z " fill="#289856" transform="translate(394,65)"/>
<path d="M0 0 C0.99 0.33 1.98 0.66 3 1 C3.33 2.65 3.66 4.3 4 6 C4.66 6 5.32 6 6 6 C7.01351664 7.65848177 8.01120795 9.32665961 9 11 C10.29579647 12.36984198 11.61992749 13.7151049 13 15 C10 15 10 15 7.84375 13.20703125 C7.0703125 12.41683594 6.296875 11.62664062 5.5 10.8125 C4.7265625 10.03519531 3.953125 9.25789063 3.15625 8.45703125 C1.07889397 6.08989911 -0.47683751 3.74852719 -2 1 C-1.34 0.67 -0.68 0.34 0 0 Z " fill="#219753" transform="translate(66,416)"/>
<path d="M0 0 C2.64 0 5.28 0 8 0 C4.43600422 2.37599719 0.91618826 3.15731805 -3.1875 4.125 C-3.93708984 4.30675781 -4.68667969 4.48851562 -5.45898438 4.67578125 C-7.30470781 5.12251686 -9.15219132 5.5619694 -11 6 C-11.33 5.01 -11.66 4.02 -12 3 C-7.9472484 2.01751476 -4.16138263 1.91840426 0 2 C0 1.34 0 0.68 0 0 Z " fill="#269755" transform="translate(315,489)"/>
<path d="M0 0 C0.66 0 1.32 0 2 0 C2.33 0.66 2.66 1.32 3 2 C3.66 2.165 4.32 2.33 5 2.5 C5.66 2.665 6.32 2.83 7 3 C7.33 3.66 7.66 4.32 8 5 C7.34 5 6.68 5 6 5 C7.3089572 8.12197478 7.3089572 8.12197478 10 10 C11.6875 12.4375 11.6875 12.4375 13 15 C12.67 15.66 12.34 16.32 12 17 C10.56147125 15.25084555 9.12421802 13.50064205 7.6875 11.75 C6.88699219 10.77546875 6.08648437 9.8009375 5.26171875 8.796875 C0 2.29015544 0 2.29015544 0 0 Z " fill="#2B9555" transform="translate(45,393)"/>
<path d="M0 0 C0.57524414 0.16749756 1.15048828 0.33499512 1.74316406 0.50756836 C4.01603339 1.00349842 5.79746603 1.03653641 8.109375 0.87890625 C8.86347656 0.83056641 9.61757812 0.78222656 10.39453125 0.73242188 C11.17183594 0.67634766 11.94914063 0.62027344 12.75 0.5625 C13.54277344 0.51029297 14.33554688 0.45808594 15.15234375 0.40429688 C17.10193997 0.27510676 19.05102886 0.13830035 21 0 C21 0.33 21 0.66 21 1 C17.73172393 1.70005804 14.46007824 2.38286244 11.1875 3.0625 C10.25873047 3.26166016 9.32996094 3.46082031 8.37304688 3.66601562 C7.0340332 3.94155273 7.0340332 3.94155273 5.66796875 4.22265625 C4.43469849 4.48187866 4.43469849 4.48187866 3.17651367 4.74633789 C1 5 1 5 -2 4 C-1.34 2.68 -0.68 1.36 0 0 Z " fill="#289958" transform="translate(195,18)"/>
<path d="M0 0 C0.33 0 0.66 0 1 0 C1 10.89 1 21.78 1 33 C0.67 33 0.34 33 0 33 C-0.16798051 30.72926348 -0.33434113 28.45840707 -0.5 26.1875 C-0.5928125 24.92292969 -0.685625 23.65835937 -0.78125 22.35546875 C-1.09977025 17.46959559 -0.81519479 12.68950051 -0.5 7.8125 C-0.45230469 7.06291016 -0.40460938 6.31332031 -0.35546875 5.54101562 C-0.23782168 3.69395656 -0.11902229 1.84697096 0 0 Z " fill="#1E9C52" transform="translate(378,261)"/>
<path d="M0 0 C0.33 0 0.66 0 1 0 C1 5.28 1 10.56 1 16 C-1.97 16 -4.94 16 -8 16 C-8 15.67 -8 15.34 -8 15 C-6.02 14.67 -4.04 14.34 -2 14 C-1.93941406 13.15695313 -1.87882812 12.31390625 -1.81640625 11.4453125 C-1.73261719 10.34960938 -1.64882813 9.25390625 -1.5625 8.125 C-1.48128906 7.03445312 -1.40007812 5.94390625 -1.31640625 4.8203125 C-1 2 -1 2 0 0 Z " fill="#319057" transform="translate(296,239)"/>
<path d="M0 0 C2.69769338 3.29898648 4.45637864 6.7678434 6.25 10.625 C6.79140625 11.77226562 7.3328125 12.91953125 7.890625 14.1015625 C8.25671875 15.05804688 8.6228125 16.01453125 9 17 C8.67 17.66 8.34 18.32 8 19 C4 14.375 4 14.375 4 11 C3.34 10.67 2.68 10.34 2 10 C0.55487596 6.3871899 0 3.93312158 0 0 Z " fill="#229652" transform="translate(472,135)"/>
<path d="M0 0 C2.0625 0.4375 2.0625 0.4375 4 1 C1.73495035 2.19984797 -0.53589888 3.38494769 -2.8125 4.5625 C-3.45509766 4.90474609 -4.09769531 5.24699219 -4.75976562 5.59960938 C-6.46926395 6.4765023 -8.23321294 7.24515617 -10 8 C-10.99 7.67 -11.98 7.34 -13 7 C-12.01 5.68 -11.02 4.36 -10 3 C-8.68 3.66 -7.36 4.32 -6 5 C-6 4.34 -6 3.68 -6 3 C-5.195625 2.690625 -4.39125 2.38125 -3.5625 2.0625 C-1.10919595 1.23664655 -1.10919595 1.23664655 0 0 Z " fill="#259754" transform="translate(364,470)"/>
<path d="M0 0 C0.66 0.33 1.32 0.66 2 1 C2 1.66 2 2.32 2 3 C0.04775792 4.28406399 -1.96340762 5.47941678 -4 6.625 C-5.11375 7.25664062 -6.2275 7.88828125 -7.375 8.5390625 C-8.24125 9.02117187 -9.1075 9.50328125 -10 10 C-10.33 9.01 -10.66 8.02 -11 7 C-9.35 6.67 -7.7 6.34 -6 6 C-6 4.68 -6 3.36 -6 2 C-4.02 2 -2.04 2 0 2 C0 1.34 0 0.68 0 0 Z " fill="#1D9D50" transform="translate(385,457)"/>
<path d="M0 0 C1.41623216 -0.05447047 2.83308191 -0.09300508 4.25 -0.125 C5.03890625 -0.14820313 5.8278125 -0.17140625 6.640625 -0.1953125 C9 0 9 0 13 2 C13 5.3 13 8.6 13 12 C12.67 12 12.34 12 12 12 C12 9.03 12 6.06 12 3 C7.71 3 3.42 3 -1 3 C-0.67 2.01 -0.34 1.02 0 0 Z " fill="#2E9857" transform="translate(442,292)"/>
<path d="M0 0 C2.78296147 2.46728226 4.32710159 5.16642934 6.0625 8.4375 C6.82240234 9.85869141 6.82240234 9.85869141 7.59765625 11.30859375 C8.06042969 12.19675781 8.52320313 13.08492187 9 14 C9.41121094 14.69222656 9.82242187 15.38445312 10.24609375 16.09765625 C11.18805745 18.47452838 10.69860443 19.59806018 10 22 C8.70326398 19.46080994 7.41252163 16.91885762 6.125 14.375 C5.76019531 13.66214844 5.39539063 12.94929687 5.01953125 12.21484375 C2.99999073 8.21248163 1.2918889 4.31082927 0 0 Z " fill="#30925A" transform="translate(453,133)"/>
<path d="M0 0 C1.37376517 4.12129552 0.65214218 6.00732307 -1 10 C-3.20734913 12.03950922 -5.41343857 13.41932357 -8 15 C-6.62712658 11.30123909 -4.93644547 8.0485524 -2.875 4.6875 C-2.33617187 3.80449219 -1.79734375 2.92148437 -1.2421875 2.01171875 C-0.83226562 1.34785156 -0.42234375 0.68398438 0 0 Z " fill="#299351" transform="translate(455,362)"/>
<path d="M0 0 C5.625 -0.25 5.625 -0.25 9 2 C10.2375 2.1546875 10.2375 2.1546875 11.5 2.3125 C14 3 14 3 15.8125 5.5625 C16.204375 6.366875 16.59625 7.17125 17 8 C11.08030998 6.24009216 5.58365008 3.60305395 0 1 C0 0.67 0 0.34 0 0 Z " fill="#2A9656" transform="translate(343,35)"/>
<path d="M0 0 C1.32 0 2.64 0 4 0 C2.52278578 3.45201639 0.56205999 5.64961936 -2.125 8.25 C-2.84945313 8.95640625 -3.57390625 9.6628125 -4.3203125 10.390625 C-4.87460937 10.92171875 -5.42890625 11.4528125 -6 12 C-6.33 10.68 -6.66 9.36 -7 8 C-6.01 8 -5.02 8 -4 8 C-4 7.01 -4 6.02 -4 5 C-3.01 5 -2.02 5 -1 5 C-0.67 3.35 -0.34 1.7 0 0 Z " fill="#299352" transform="translate(435,413)"/>
<path d="M0 0 C2.74792483 3.40219265 6 7.48464588 6 12 C3.5625 11.1875 3.5625 11.1875 1 10 C-0.1577506 6.52674819 -0.06866652 3.63932552 0 0 Z " fill="#209B54" transform="translate(39,352)"/>
<path d="M0 0 C3 1 3 1 5 3 C4 4 4 4 0.9375 4.0625 C-0.031875 4.041875 -1.00125 4.02125 -2 4 C-2.33 6.64 -2.66 9.28 -3 12 C-3.33 12 -3.66 12 -4 12 C-5.13213213 6.77477477 -5.13213213 6.77477477 -5 4 C-2.75 1.4375 -2.75 1.4375 0 0 Z " fill="#279C53" transform="translate(249,146)"/>
<path d="M0 0 C4.875 1.75 4.875 1.75 6 4 C8.01669827 5.13350534 8.01669827 5.13350534 10 6 C10 6.66 10 7.32 10 8 C10.66 8 11.32 8 12 8 C12.66 9.32 13.32 10.64 14 12 C10.31291925 10.42351454 7.70126855 8.12557062 4.75 5.4375 C3.85796875 4.63183594 2.9659375 3.82617188 2.046875 2.99609375 C1.37140625 2.33738281 0.6959375 1.67867188 0 1 C0 0.67 0 0.34 0 0 Z " fill="#299458" transform="translate(81,434)"/>
<path d="M0 0 C0.99 0.495 0.99 0.495 2 1 C2.4140625 3.28515625 2.4140625 3.28515625 2.625 6.0625 C2.69976562 6.98160156 2.77453125 7.90070313 2.8515625 8.84765625 C2.92503906 9.91306641 2.92503906 9.91306641 3 11 C4.32 10.67 5.64 10.34 7 10 C5.63016497 13.16115776 5.0109362 13.9927092 2 16 C1.66104344 14.27192682 1.32908475 12.54248026 1 10.8125 C0.814375 9.84957031 0.62875 8.88664063 0.4375 7.89453125 C0.03122388 5.2065794 -0.07933572 2.71228981 0 0 Z " fill="#229952" transform="translate(479,201)"/>
<path d="M0 0 C0.66 0.33 1.32 0.66 2 1 C0.54601271 2.81598825 -0.91332325 4.62769519 -2.375 6.4375 C-3.59316406 7.95150391 -3.59316406 7.95150391 -4.8359375 9.49609375 C-7 12 -7 12 -9 13 C-8.6875 11.0625 -8.6875 11.0625 -8 9 C-7.01 8.67 -6.02 8.34 -5 8 C-4.855625 7.401875 -4.71125 6.80375 -4.5625 6.1875 C-3.81048512 3.2629977 -2.20287489 1.98969345 0 0 Z " fill="#299255" transform="translate(448,400)"/>
<path d="M0 0 C0.99 0 1.98 0 3 0 C3.33 1.32 3.66 2.64 4 4 C4.66 4 5.32 4 6 4 C6.268125 4.804375 6.53625 5.60875 6.8125 6.4375 C7.204375 7.283125 7.59625 8.12875 8 9 C8.99 9.33 9.98 9.66 11 10 C10.67 11.32 10.34 12.64 10 14 C8.33041937 11.85637773 6.66423643 9.71026458 5 7.5625 C4.52304687 6.95083984 4.04609375 6.33917969 3.5546875 5.70898438 C0 1.11328125 0 1.11328125 0 0 Z " fill="#2D9356" transform="translate(428,98)"/>
<path d="M0 0 C0.33 0 0.66 0 1 0 C1.35368021 7.12600133 0.95671348 12.47059106 -2 19 C-2.33 19 -2.66 19 -3 19 C-2.48446121 12.50149789 -1.53332291 6.33773468 0 0 Z " fill="#2C9457" transform="translate(236,121)"/>
<path d="M0 0 C3.25516428 3.16474305 6.32008793 6.32752791 9 10 C9 10.66 9 11.32 9 12 C7.171875 11.77734375 7.171875 11.77734375 5 11 C3.515625 9.00390625 3.515625 9.00390625 2.25 6.5625 C1.82203125 5.75941406 1.3940625 4.95632812 0.953125 4.12890625 C0 2 0 2 0 0 Z " fill="#269455" transform="translate(445,94)"/>
<path d="M0 0 C2.51083114 1.25541557 2.87125446 2.50063488 4 5 C-0.84241633 6.33583899 -4.93437617 7.25328119 -10 7 C-10 6.67 -10 6.34 -10 6 C-5.545 5.505 -5.545 5.505 -1 5 C-0.67 3.35 -0.34 1.7 0 0 Z " fill="#259A54" transform="translate(298,490)"/>
<path d="M0 0 C0.99 0.33 1.98 0.66 3 1 C3 1.66 3 2.32 3 3 C3.99 3.33 4.98 3.66 6 4 C6.33 5.65 6.66 7.3 7 9 C7.66 9 8.32 9 9 9 C8.67 10.32 8.34 11.64 8 13 C6.66388095 11.0226631 5.33100742 9.04327287 4 7.0625 C3.6184375 6.49853516 3.236875 5.93457031 2.84375 5.35351562 C0 1.11328125 0 1.11328125 0 0 Z " fill="#2B9254" transform="translate(36,380)"/>
<path d="M0 0 C0.99 0.33 1.98 0.66 3 1 C3 1.99 3 2.98 3 4 C3.99 3.67 4.98 3.34 6 3 C6.85856655 6.4342662 6.97591583 8.61682513 6 12 C4.99466333 10.37829621 3.99588093 8.75252763 3 7.125 C2.443125 6.22007813 1.88625 5.31515625 1.3125 4.3828125 C0 2 0 2 0 0 Z " fill="#269654" transform="translate(445,120)"/>
<path d="M0 0 C-0.33 0.598125 -0.66 1.19625 -1 1.8125 C-2.20787988 4.05386471 -2.20787988 4.05386471 -2 7 C-4.31 7 -6.62 7 -9 7 C-8.07347299 5.82460004 -7.13336613 4.65989423 -6.1875 3.5 C-5.66542969 2.8503125 -5.14335938 2.200625 -4.60546875 1.53125 C-3 0 -3 0 0 0 Z " fill="#229951" transform="translate(88,61)"/>
<path d="M0 0 C-2 3 -2 3 -5.4375 4.3125 C-9 5 -9 5 -12 3 C-10.5682384 2.30062798 -9.12932968 1.61587282 -7.6875 0.9375 C-6.48673828 0.36322266 -6.48673828 0.36322266 -5.26171875 -0.22265625 C-3 -1 -3 -1 0 0 Z " fill="#229652" transform="translate(157,19)"/>
<path d="M0 0 C3.55780196 0.60990891 6.6828589 1.5783681 10 3 C9.34 3.66 8.68 4.32 8 5 C5.875 4.625 5.875 4.625 4 4 C3.67 4.66 3.34 5.32 3 6 C2.01 5.67 1.02 5.34 0 5 C0 3.35 0 1.7 0 0 Z " fill="#209B53" transform="translate(340,17)"/>
<path d="M0 0 C0.33 0.66 0.66 1.32 1 2 C0.67 2.66 0.34 3.32 0 4 C1.32 4.66 2.64 5.32 4 6 C4 6.66 4 7.32 4 8 C0.06326356 6.68775452 -2.22719294 5.08089673 -5 2 C-3.35 1.34 -1.7 0.68 0 0 Z " fill="#249753" transform="translate(118,457)"/>
<path d="M0 0 C5.40677966 -0.49152542 5.40677966 -0.49152542 8.1875 1.8125 C9.0846875 2.8953125 9.0846875 2.8953125 10 4 C10.5775 4.5775 11.155 5.155 11.75 5.75 C12.1625 6.1625 12.575 6.575 13 7 C9.34899606 7 7.89878202 5.9552415 4.8125 4.0625 C3.46091797 3.24458984 3.46091797 3.24458984 2.08203125 2.41015625 C1.39496094 1.94480469 0.70789063 1.47945312 0 1 C0 0.67 0 0.34 0 0 Z " fill="#2E9456" transform="translate(362,44)"/>
<path d="M0 0 C4.32547217 0.47186969 8.60274055 1.04409054 12.875 1.875 C13.61492187 2.01679688 14.35484375 2.15859375 15.1171875 2.3046875 C17 3 17 3 19 6 C12.54945018 4.64746536 6.28894321 2.96939767 0 1 C0 0.67 0 0.34 0 0 Z " fill="#30935D" transform="translate(312,24)"/>
<path d="M0 0 C0 0.66 0 1.32 0 2 C-12.375 6.125 -12.375 6.125 -17 6 C-13.9666221 3.97774806 -11.38655511 3.00652476 -7.9375 1.875 C-6.87402344 1.52179688 -5.81054688 1.16859375 -4.71484375 0.8046875 C-2 0 -2 0 0 0 Z " fill="#2D9557" transform="translate(333,469)"/>
<path d="M0 0 C0.99 0.33 1.98 0.66 3 1 C3 1.66 3 2.32 3 3 C4.98 2.67 6.96 2.34 9 2 C9 2.66 9 3.32 9 4 C4.71 4 0.42 4 -4 4 C-2.68 2.68 -1.36 1.36 0 0 Z M3 0 C5 1 5 1 5 1 Z " fill="#1E9E50" transform="translate(165,250)"/>
<path d="M0 0 C1.98 0.99 1.98 0.99 4 2 C4.25 9.5 4.25 9.5 2 14 C1.34 9.38 0.68 4.76 0 0 Z " fill="#259857" transform="translate(259,106)"/>
<path d="M0 0 C1.65 0 3.3 0 5 0 C4.06409496 1.1055189 3.12620142 2.20935453 2.1875 3.3125 C1.40439453 4.23482422 1.40439453 4.23482422 0.60546875 5.17578125 C-2.3373102 8.51952278 -2.3373102 8.51952278 -4 10 C-4.66 10 -5.32 10 -6 10 C-6 9.34 -6 8.68 -6 8 C-5.195625 7.38125 -4.39125 6.7625 -3.5625 6.125 C-0.96935871 3.97459015 -0.34779165 3.24605542 0 0 Z " fill="#2C9155" transform="translate(90,74)"/>
<path d="M0 0 C1.2065625 0.0309375 1.2065625 0.0309375 2.4375 0.0625 C0.23209886 2.26790114 -1.77644742 3.3025727 -4.5625 4.6875 C-5.449375 5.13351563 -6.33625 5.57953125 -7.25 6.0390625 C-9.5625 7.0625 -9.5625 7.0625 -11.5625 7.0625 C-11.2325 6.0725 -10.9025 5.0825 -10.5625 4.0625 C-8.25997517 2.99347061 -5.9252974 1.99074183 -3.5625 1.0625 C-2.5625 0.0625 -2.5625 0.0625 0 0 Z " fill="#2C9659" transform="translate(151.5625,35.9375)"/>
<path d="M0 0 C0 0.99 0 1.98 0 3 C0.3062434 4.33981486 0.63451555 5.67511887 1 7 C-2 9 -2 9 -5 9 C-3.90931332 5.22454612 -3.0916909 2.52956528 0 0 Z " fill="#209A51" transform="translate(28,136)"/>
<path d="M0 0 C-6.14285714 5.57142857 -6.14285714 5.57142857 -11 6 C-4.97191011 -1.65730337 -4.97191011 -1.65730337 0 0 Z " fill="#239650" transform="translate(423,413)"/>
<path d="M0 0 C0.33 0 0.66 0 1 0 C1.66 4.29 2.32 8.58 3 13 C2.34 13 1.68 13 1 13 C1 11.68 1 10.36 1 9 C0.34 9 -0.32 9 -1 9 C-0.67 6.03 -0.34 3.06 0 0 Z " fill="#1E9D53" transform="translate(19,291)"/>
<path d="M0 0 C1.28497537 3.85492611 0.4052209 5.40346836 -0.9375 9.1875 C-1.31777344 10.27417969 -1.69804687 11.36085937 -2.08984375 12.48046875 C-2.39019531 13.31191406 -2.69054687 14.14335937 -3 15 C-3.66 14.34 -4.32 13.68 -5 13 C-4.54554036 11.58208592 -4.08625056 10.16571954 -3.625 8.75 C-3.24214844 7.56664062 -3.24214844 7.56664062 -2.8515625 6.359375 C-2.04826333 4.13372042 -1.10288338 2.09068328 0 0 Z " fill="#229B53" transform="translate(29,168)"/>
<path d="M0 0 C1.4391134 0.28359887 2.87625518 0.57721399 4.3125 0.875 C5.11300781 1.03742187 5.91351563 1.19984375 6.73828125 1.3671875 C9 2 9 2 12 4 C8.37 4 4.74 4 1 4 C0.67 2.68 0.34 1.36 0 0 Z " fill="#279252" transform="translate(321,10)"/>
<path d="M0 0 C3.03852705 1.40976705 5.5939595 3.08870228 8.25 5.125 C8.95640625 5.66382813 9.6628125 6.20265625 10.390625 6.7578125 C10.92171875 7.16773438 11.4528125 7.57765625 12 8 C8.66193504 8 7.64321392 7.41891055 4.875 5.6875 C4.17117187 5.25824219 3.46734375 4.82898438 2.7421875 4.38671875 C1 3 1 3 0 0 Z " fill="#219855" transform="translate(103,433)"/>
<path d="M0 0 C2.38601036 1.86731246 2.98586422 2.94463485 3.75 5.9375 C3.97851083 8.73675772 3.75201578 10.36224767 3 13 C2.49242138 11.58603098 1.99425075 10.16868271 1.5 8.75 C1.08234375 7.56664062 1.08234375 7.56664062 0.65625 6.359375 C0 4 0 4 0 0 Z " fill="#299957" transform="translate(7,309)"/>
<path d="M0 0 C0.33 0.99 0.66 1.98 1 3 C-7.57142857 2.14285714 -7.57142857 2.14285714 -11 0 C-6.98195309 -0.84098656 -3.98196457 -1.05404945 0 0 Z " fill="#289757" transform="translate(198,492)"/>
<path d="M0 0 C2.475 0.495 2.475 0.495 5 1 C6.125 4.75 6.125 4.75 5 7 C0 1.125 0 1.125 0 0 Z " fill="#249852" transform="translate(58,410)"/>
<path d="M0 0 C0.33 1.98 0.66 3.96 1 6 C-1.97 5.505 -1.97 5.505 -5 5 C-4.625 3.0625 -4.625 3.0625 -4 1 C-2 0 -2 0 0 0 Z " fill="#1F924E" transform="translate(370,242)"/>
<path d="M0 0 C0.66 0 1.32 0 2 0 C0.61811547 3.21043882 -0.92421903 5.04936365 -3.625 7.25 C-4.57246094 8.03117187 -4.57246094 8.03117187 -5.5390625 8.828125 C-6.02117187 9.21484375 -6.50328125 9.6015625 -7 10 C-5.57268007 7.07153324 -4.13071088 4.48582937 -2 2 C-1.34 2 -0.68 2 0 2 C0 1.34 0 0.68 0 0 Z " fill="#2E9056" transform="translate(82,84)"/>
<path d="M0 0 C0 3.64478912 -0.85802506 5.09303401 -3 8 C-5.1875 8.8125 -5.1875 8.8125 -7 9 C-5.44499019 5.18315774 -2.96404505 2.80804268 0 0 Z " fill="#259355" transform="translate(77,68)"/>
<path d="M0 0 C-2 2.125 -2 2.125 -5 4 C-7.91004167 3.75256577 -10.20136493 2.94868985 -13 2 C-13 1.67 -13 1.34 -13 1 C-8.61414671 0.29826347 -4.44209357 -0.10834375 0 0 Z " fill="#259754" transform="translate(225,1)"/>
<path d="M0 0 C0.66 0.33 1.32 0.66 2 1 C-2.455 4.465 -2.455 4.465 -7 8 C-7.66 7.67 -8.32 7.34 -9 7 C-3.51752022 1.21293801 -3.51752022 1.21293801 0 0 Z " fill="#2D9254" transform="translate(400,448)"/>
<path d="M0 0 C0.99 0.495 0.99 0.495 2 1 C2 2.65 2 4.3 2 6 C2.99 6.33 3.98 6.66 5 7 C5.6875 9.0625 5.6875 9.0625 6 11 C3 10 3 10 1.3125 7.1875 C0 4 0 4 0 0 Z " fill="#309458" transform="translate(363,320)"/>
<path d="M0 0 C1.32 0.33 2.64 0.66 4 1 C2.90716423 2.03295436 1.80029421 3.05107835 0.6875 4.0625 C0.07261719 4.63097656 -0.54226562 5.19945313 -1.17578125 5.78515625 C-1.77777344 6.18605469 -2.37976563 6.58695312 -3 7 C-3.99 6.67 -4.98 6.34 -6 6 C-4.71034824 4.62437146 -3.37310707 3.29233607 -2 2 C-1.34 2 -0.68 2 0 2 C0 1.34 0 0.68 0 0 Z " fill="#319357" transform="translate(107,61)"/>
<path d="M0 0 C6.52307692 1.47692308 6.52307692 1.47692308 8.9375 4.125 C9.288125 4.74375 9.63875 5.3625 10 6 C6.62972148 6 5.93297304 5.50175992 3.3125 3.5625 C2.68988281 3.11003906 2.06726563 2.65757812 1.42578125 2.19140625 C0.95527344 1.79824219 0.48476562 1.40507812 0 1 C0 0.67 0 0.34 0 0 Z " fill="#2F9359" transform="translate(103,452)"/>
<path d="M0 0 C0.66 0 1.32 0 2 0 C2.53190541 1.43344 3.05015258 2.87195367 3.5625 4.3125 C3.85253906 5.11300781 4.14257812 5.91351563 4.44140625 6.73828125 C5 9 5 9 4 12 C1.57869669 9.57869669 1.47159496 8.19888623 0.875 4.875 C0.70742187 3.96492188 0.53984375 3.05484375 0.3671875 2.1171875 C0.24601562 1.41851562 0.12484375 0.71984375 0 0 Z " fill="#2D9658" transform="translate(99,259)"/>
<path d="M0 0 C3.64566186 0.98531402 4.80178732 1.68946681 6.875 4.9375 C8 8 8 8 7 11 C6.74605469 10.45730469 6.49210938 9.91460937 6.23046875 9.35546875 C5.71419922 8.28232422 5.71419922 8.28232422 5.1875 7.1875 C4.85105469 6.47980469 4.51460937 5.77210938 4.16796875 5.04296875 C2.99354529 2.98870965 1.74371984 1.58383722 0 0 Z " fill="#2D9256" transform="translate(235,241)"/>
<path d="M0 0 C2.31 0.33 4.62 0.66 7 1 C5.625 2.5 5.625 2.5 4 4 C3.34 4 2.68 4 2 4 C1.67 4.66 1.34 5.32 1 6 C0.67 4.02 0.34 2.04 0 0 Z " fill="#219D52" transform="translate(464,153)"/>
<path d="M0 0 C4.42857143 5.14285714 4.42857143 5.14285714 5 9 C2.5 7.875 2.5 7.875 0 6 C-0.3125 2.8125 -0.3125 2.8125 0 0 Z " fill="#2A9355" transform="translate(467,126)"/>
<path d="M0 0 C1.4540625 0.0309375 1.4540625 0.0309375 2.9375 0.0625 C0.40961993 2.86122437 -1.26661134 4.52023019 -5.0625 5.0625 C-3.9375 0.08035714 -3.9375 0.08035714 0 0 Z " fill="#279754" transform="translate(126.0625,48.9375)"/>
<path d="M0 0 C0.8125 1.6875 0.8125 1.6875 1 4 C-1.1613627 6.51185394 -3.01962439 8.50981219 -6 10 C-4.6302836 6.00499382 -2.74277578 3.19990508 0 0 Z " fill="#299055" transform="translate(445,379)"/>
<path d="M0 0 C2.3129482 2.3129482 2.49580975 3.47904875 3.125 6.625 C3.29257813 7.44226563 3.46015625 8.25953125 3.6328125 9.1015625 C3.81457031 10.04128906 3.81457031 10.04128906 4 11 C1 9 1 9 0.48828125 6.8359375 C0.43027344 6.02382813 0.37226562 5.21171875 0.3125 4.375 C0.24675781 3.55773437 0.18101563 2.74046875 0.11328125 1.8984375 C0.07589844 1.27195312 0.03851563 0.64546875 0 0 Z " fill="#289252" transform="translate(104,271)"/>
<path d="M0 0 C3.00617269 3.00617269 2.59585316 5.82381598 3 10 C-0.875 5.25 -0.875 5.25 -2 3 C-1.34 3 -0.68 3 0 3 C0 2.01 0 1.02 0 0 Z " fill="#1E9C54" transform="translate(492,190)"/>
<path d="M0 0 C0.99 0.66 1.98 1.32 3 2 C2.67 3.65 2.34 5.3 2 7 C0.68 5.68 -0.64 4.36 -2 3 C-1.34 2.01 -0.68 1.02 0 0 Z " fill="#219D51" transform="translate(426,91)"/>
<path d="M0 0 C0.99 0.33 1.98 0.66 3 1 C0.64722731 3.72426311 -1.62496331 4.8141763 -5 6 C-5 5.01 -5 4.02 -5 3 C-3.35 2.67 -1.7 2.34 0 2 C0 1.34 0 0.68 0 0 Z " fill="#229554" transform="translate(379,461)"/>
<path d="M0 0 C3.76488042 1.72154788 6.15063897 3.99234114 9 7 C6 7 6 7 4.39453125 5.46875 C3.87246094 4.8190625 3.35039063 4.169375 2.8125 3.5 C2.28269531 2.8503125 1.75289063 2.200625 1.20703125 1.53125 C0.80871094 1.0259375 0.41039063 0.520625 0 0 Z " fill="#309256" transform="translate(70,424)"/>
<path d="M0 0 C0.66 0.33 1.32 0.66 2 1 C-2.95 3.97 -2.95 3.97 -8 7 C-5.74441032 2.48882064 -4.54705717 1.79987679 0 0 Z " fill="#308F54" transform="translate(206,239)"/>
<path d="M0 0 C0.33 0 0.66 0 1 0 C1.33 2.97 1.66 5.94 2 9 C1.34 9 0.68 9 0 9 C-0.66 7.02 -1.32 5.04 -2 3 C-1.34 3 -0.68 3 0 3 C0 2.01 0 1.02 0 0 Z " fill="#239854" transform="translate(285,155)"/>
<path d="M0 0 C2.97903734 2.97903734 4 5.80285329 4 10 C3.01 9.67 2.02 9.34 1 9 C0.67 6.03 0.34 3.06 0 0 Z " fill="#1C9851" transform="translate(481,155)"/>
<path d="M0 0 C1.85776765 3.13498292 2.20140476 5.37471432 2 9 C1.34 9 0.68 9 0 9 C-0.87890625 2.84765625 -0.87890625 2.84765625 -1 1 C-0.67 0.67 -0.34 0.34 0 0 Z " fill="#1E9D52" transform="translate(273,100)"/>
<path d="M0 0 C2.12508244 3.18762365 2.5020163 5.26512223 3 9 C1.35 7.35 -0.3 5.7 -2 4 C-1.34 2.68 -0.68 1.36 0 0 Z " fill="#279A55" transform="translate(269,83)"/>
<path d="M0 0 C0.66 0.33 1.32 0.66 2 1 C-2.455 3.97 -2.455 3.97 -7 7 C-4.92675939 2.85351878 -4.03205902 1.91522803 0 0 Z " fill="#2C9256" transform="translate(119,54)"/>
<path d="M0 0 C3.375 0.3125 3.375 0.3125 7 1 C7.66 1.99 8.32 2.98 9 4 C5.17902761 3.46930939 2.93828597 2.50298434 0 0 Z " fill="#299555" transform="translate(141,475)"/>
<path d="M0 0 C0.66 1.32 1.32 2.64 2 4 C1.01 4.33 0.02 4.66 -1 5 C-1 6.32 -1 7.64 -1 9 C-1.66 9 -2.32 9 -3 9 C-2.01 6.03 -1.02 3.06 0 0 Z " fill="#278952" transform="translate(21,147)"/>
<path d="M0 0 C0.99 0.33 1.98 0.66 3 1 C0.525 4.465 0.525 4.465 -2 8 C-2.33 7.01 -2.66 6.02 -3 5 C-1.5625 2.3125 -1.5625 2.3125 0 0 Z " fill="#279154" transform="translate(58,112)"/>
</svg>
